<svg width="754" height="562" viewBox="0 0 754 562" fill="none" xmlns="http://www.w3.org/2000/svg">
<path d="M0 494.271H754V493.894H0V494.271Z" fill="#E7E8E5"/>
<path d="M645.758 518.167H678.45V518.544H645.758V518.167Z" fill="#E7E8E5"/>
<path d="M468.32 510.719H519.757V510.342H468.32V510.719Z" fill="#E7E8E5"/>
<path d="M598.055 504.162H665.198V504.539H598.055V504.162Z" fill="#E7E8E5"/>
<path d="M260.904 512.142H244.109V511.765H260.904V512.142Z" fill="#E7E8E5"/>
<path d="M172.797 512.142H230.686V511.765H172.797V512.142Z" fill="#E7E8E5"/>
<path d="M141.749 505.776H99.9844V505.399H141.749V505.776Z" fill="#E7E8E5"/>
<path d="M66.2246 0.482559C61.6865 0.482559 57.9942 4.1757 57.9942 8.71178V418.031C57.9942 422.57 61.6865 426.262 66.2246 426.262H357.418C361.954 426.262 365.647 422.57 365.647 418.031V8.71178C365.647 4.1757 361.954 0.482559 357.418 0.482559H66.2246ZM357.418 426.639H66.2246C61.4786 426.639 57.6172 422.779 57.6172 418.031V8.71178C57.6172 3.96761 61.4786 0.105576 66.2246 0.105576H357.418C362.162 0.105576 366.024 3.96761 366.024 8.71178V418.031C366.024 422.779 362.162 426.639 357.418 426.639Z" fill="#E7E8E5"/>
<path d="M392.403 0.482559C387.865 0.482559 384.174 4.1757 384.174 8.71178V418.031C384.174 422.57 387.865 426.262 392.403 426.262H683.596C688.134 426.262 691.827 422.57 691.827 418.031V8.71178C691.827 4.1757 688.134 0.482559 683.596 0.482559H392.403ZM683.596 426.639H392.403C387.657 426.639 383.797 422.779 383.797 418.031V8.71178C383.797 3.96761 387.657 0.105576 392.403 0.105576H683.596C688.342 0.105576 692.204 3.96761 692.204 8.71178V418.031C692.204 422.779 688.342 426.639 683.596 426.639Z" fill="#E7E8E5"/>
<path d="M191.93 284.359C148.533 282.871 114.55 246.477 116.036 203.078C117.526 159.629 153.919 125.65 197.316 127.135C240.714 128.622 274.698 165.014 273.208 208.463C271.721 251.863 235.327 285.844 191.93 284.359ZM325.836 220.161L326.514 200.345L314.348 196.37C313.847 189.599 312.716 182.913 311.104 176.471L321.416 168.867L314.411 150.254L301.656 151.281C298.616 145.261 295.044 139.537 291.039 134.165L297.647 123.137L284.061 108.644L272.659 114.483C267.523 110.119 262.108 106.163 256.312 102.668L258.16 90.0111L240.067 81.7985L231.777 91.5146C225.462 89.4652 218.918 87.9331 212.149 86.9167L209.065 74.5073L189.197 73.8272L185.273 85.9937C178.448 86.5457 171.816 87.6284 165.374 89.239L157.716 78.977L139.104 85.9319L140.133 98.6881C134.113 101.778 128.389 105.35 123.017 109.356L112.041 102.751L97.4956 116.28L103.333 127.734C98.9712 132.819 95.0151 138.287 91.5697 144.083L78.9148 142.185L70.6526 160.273L80.4187 168.566C78.3712 174.883 76.7831 181.477 75.8206 188.197L63.3589 191.328L62.6797 211.146L74.8975 215.124C75.3963 221.946 76.531 228.581 78.142 235.022L67.8316 242.625L74.8361 261.241L87.5911 260.21C90.6314 266.228 94.204 271.954 98.2079 277.327L91.5997 288.354L105.185 302.849L116.587 297.008C121.673 301.372 127.138 305.329 132.934 308.825L131.034 321.479L149.126 329.69L157.469 319.977C163.784 322.026 170.328 323.56 177.099 324.576L180.181 336.982L200.049 337.664L203.974 325.496C210.798 324.945 217.43 323.864 223.872 322.252L231.477 332.511L250.089 325.558L249.113 312.806C255.135 309.715 260.806 306.139 266.229 302.135L277.206 308.743L291.75 295.211L285.914 283.757C290.276 278.671 294.232 273.204 297.677 267.408L310.332 269.308L318.594 251.216L308.827 242.925C310.876 236.611 312.461 230.068 313.425 223.296L325.836 220.161Z" fill="#E7E8E5"/>
<path d="M629.347 125.781C625.67 121.843 625.881 115.67 629.819 111.993C633.762 108.311 639.936 108.523 643.612 112.461C647.29 116.4 647.078 122.572 643.136 126.254C639.198 129.931 633.023 129.72 629.347 125.781ZM664.96 154.63L669.957 149.963L667.961 146.029C669.49 144.255 670.844 142.349 672.022 140.386L676.39 141.045L679.221 134.799L675.859 131.938C676.586 129.732 677.111 127.464 677.444 125.178L681.745 124.098L681.967 117.252L677.763 115.896C677.574 113.58 677.218 111.295 676.657 109.028L680.195 106.392L677.785 99.9789L673.394 100.326C672.353 98.287 671.132 96.316 669.729 94.4175L672.003 90.6414L667.324 85.6288L663.4 87.6405C661.601 86.1114 659.721 84.7572 657.757 83.5794L658.392 79.2108L652.158 76.3667L649.299 79.728C647.076 79.0147 644.81 78.4899 642.524 78.1552L641.457 73.8679L634.611 73.6206L633.242 77.837C630.938 78.0149 628.641 78.3829 626.386 78.9559L623.764 75.4076L617.338 77.8038L617.697 82.2072C615.659 83.2477 613.663 84.4692 611.789 85.8731L607.987 83.5976L602.99 88.2648L604.998 92.2142C603.457 93.9982 602.115 95.8938 600.937 97.8572L596.569 97.1952L593.738 103.444L597.1 106.302C596.374 108.511 595.848 110.779 595.515 113.065L591.215 114.142L590.992 120.991L595.198 122.346C595.373 124.65 595.741 126.948 596.302 129.215L592.754 131.835L595.163 138.25L599.565 137.916C600.606 139.956 601.827 141.925 603.231 143.823L600.957 147.6L605.635 152.611L609.56 150.601C611.358 152.132 613.238 153.484 615.203 154.662L614.555 159.019L620.79 161.861L623.661 158.513C625.883 159.228 628.139 159.739 630.437 160.085L631.502 164.374L638.348 164.619L639.719 160.403C642.021 160.228 644.32 159.86 646.573 159.286L649.195 162.835L655.622 160.439L655.262 156.034C657.3 154.994 659.283 153.786 661.17 152.37L664.96 154.63Z" fill="#E7E8E5"/>
<path d="M379.314 408.431C358.724 407.726 342.639 390.439 343.343 369.908C344.048 349.318 361.275 333.232 381.865 333.936C402.457 334.642 418.543 351.869 417.837 372.459C417.134 392.992 399.904 409.137 379.314 408.431ZM482.539 358.079L466.945 347.311L466.936 347.273C465.395 341.609 463.266 336.154 460.664 331.03L464.661 315.35L442.041 291.124L426.118 294.039C421.188 291.097 415.895 288.603 410.353 286.677L410.314 286.665L400.632 270.363L367.511 269.228L356.74 284.824L356.679 284.839C351.019 286.38 345.572 288.505 340.453 291.101L324.78 287.107L300.555 309.728L303.464 325.618L303.455 325.633C300.451 330.618 298.016 335.913 296.09 341.456L279.792 351.133L278.656 384.258L294.266 395.036C295.805 400.741 297.868 406.181 300.519 411.349L300.522 411.355L296.538 426.989L319.158 451.21L334.982 448.315C339.976 451.267 345.275 453.766 350.885 455.694L350.898 455.698L360.563 471.975L393.686 473.111L404.449 457.527C410.175 455.986 415.631 453.86 420.812 451.256L420.817 451.253L436.419 455.229L460.643 432.611L457.733 416.716C460.737 411.729 463.174 406.433 465.099 400.89L465.101 400.887L481.405 391.204L482.539 358.079Z" fill="#E7E8E5"/>
<path d="M507.727 139.095C485.562 139.095 467.162 156.731 466.397 179.051C465.616 201.849 483.528 221.031 506.327 221.813C517.373 222.183 527.908 218.242 535.987 210.689C544.059 203.143 548.713 192.912 549.091 181.884C549.871 159.085 531.959 139.902 509.161 139.119C508.681 139.103 508.202 139.095 507.727 139.095ZM507.784 228.207C507.226 228.207 506.67 228.197 506.109 228.179C479.8 227.277 459.13 205.139 460.032 178.832C460.934 152.525 483.106 131.861 509.378 132.754C535.687 133.656 556.357 155.793 555.455 182.102C555.019 194.829 549.649 206.635 540.336 215.341C531.422 223.673 519.917 228.207 507.784 228.207ZM531.178 113.83H531.193H531.178ZM493.805 256.806L516.438 257.583L523.935 246.728C524.363 246.107 524.998 245.659 525.726 245.463C529.896 244.341 534.034 242.756 538.024 240.749L538.045 240.739C538.71 240.411 539.485 240.31 540.244 240.508L550.859 243.21L567.41 227.755L565.43 216.938C565.29 216.175 565.435 215.386 565.834 214.721C568.018 211.097 569.87 207.122 571.34 202.907C571.581 202.16 572.093 201.531 572.758 201.139L584.102 194.401L584.879 171.767L574.015 164.265C573.447 163.873 573.023 163.306 572.804 162.653L572.731 162.398C571.595 158.239 570.016 154.152 568.035 150.251C567.685 149.562 567.599 148.77 567.789 148.022L570.509 137.349L555.052 120.794L544.211 122.778C543.451 122.919 542.669 122.775 542.007 122.38C538.237 120.13 534.255 118.273 530.175 116.852C529.944 116.774 529.71 116.666 529.51 116.543C529.069 116.273 528.703 115.9 528.441 115.457L521.697 104.102L499.062 103.327L491.561 114.19C491.115 114.837 490.445 115.293 489.687 115.475C485.499 116.623 481.426 118.197 477.541 120.17C476.852 120.518 476.059 120.607 475.314 120.415L464.645 117.695L448.091 133.153L450.071 143.97C450.195 144.649 450.095 145.35 449.786 145.967L449.643 146.223C447.455 149.861 445.6 153.848 444.133 158.075C443.886 158.783 443.395 159.385 442.75 159.768L431.398 166.509L430.623 189.142L441.495 196.651C442.115 197.079 442.563 197.714 442.759 198.441C443.931 202.778 445.51 206.895 447.449 210.681C447.561 210.898 447.648 211.128 447.707 211.366C447.835 211.877 447.835 212.414 447.704 212.924L444.992 223.561L460.449 240.113L471.214 238.143C471.971 238.006 472.749 238.146 473.408 238.536C477.246 240.805 481.246 242.663 485.301 244.062C486.034 244.295 486.669 244.789 487.073 245.471L493.805 256.806ZM518.069 264.007H517.96L491.846 263.113C490.762 263.075 489.771 262.489 489.218 261.557L482.186 249.714C478.447 248.359 474.763 246.649 471.204 244.62L459.884 246.691C458.815 246.893 457.724 246.526 456.984 245.732L439.15 226.636C438.41 225.843 438.125 224.728 438.392 223.676L441.239 212.501C439.509 208.964 438.062 205.183 436.928 201.237L425.571 193.394C424.678 192.778 424.161 191.75 424.197 190.666L425.093 164.55C425.129 163.467 425.716 162.475 426.649 161.922L438.511 154.878C439.918 151.028 441.622 147.36 443.593 143.948L441.512 132.588C441.317 131.522 441.679 130.427 442.471 129.688L461.57 111.853C462.363 111.111 463.479 110.827 464.53 111.094L475.741 113.954C479.369 112.189 483.137 110.736 486.975 109.624L494.811 98.2749C495.427 97.3822 496.439 96.8303 497.54 96.9026L523.654 97.7984C524.738 97.8346 525.729 98.4212 526.283 99.3546L533.328 111.217C537.071 112.587 540.728 114.293 544.226 116.302L555.618 114.216C556.687 114.021 557.777 114.382 558.519 115.174L576.351 134.274C577.092 135.069 577.377 136.183 577.11 137.234L574.252 148.449C576.018 152.079 577.47 155.846 578.582 159.679L589.929 167.515C590.822 168.13 591.339 169.16 591.303 170.244L590.409 196.36C590.371 197.444 589.785 198.435 588.851 198.988L576.985 206.035C575.579 209.885 573.875 213.551 571.909 216.958L573.988 228.322C574.184 229.388 573.822 230.483 573.029 231.222L553.932 249.054C553.139 249.796 552.026 250.081 550.972 249.811L539.811 246.968C536.131 248.743 532.343 250.195 528.519 251.296L520.69 262.633C520.094 263.496 519.114 264.007 518.069 264.007Z" fill="#E7E8E5"/>
<path d="M578.223 76.0651L567.404 73.1592L564.5 62.3423L568.736 58.1078L573.204 67.3609L582.459 71.8291L578.223 76.0651Z" fill="#DADBD8"/>
<path d="M578.898 68.8237C580.868 66.8527 580.868 63.6407 578.897 61.6697C576.927 59.7003 573.729 59.7139 571.758 61.6833L577.138 53.6125L584.356 57.2603L585.938 64.8426L578.898 68.8237Z" fill="#DADBD8"/>
<path d="M582.277 65.4427C584.248 63.4703 584.248 60.2582 582.277 58.2873C580.306 56.3178 577.109 56.3329 575.138 58.3024C573.167 60.2733 573.167 63.4567 575.138 65.4277C577.109 67.3971 580.306 67.4122 582.277 65.4427ZM567.883 58.9613L575.81 51.0338L586.627 53.9382L589.532 64.7551L581.606 72.6841L570.787 69.7782L567.883 58.9613Z" fill="#EDEDEB"/>
<path d="M136.054 364.672L141.858 363.113L143.417 357.31L141.145 355.038L138.746 360.002L133.781 362.401L136.054 364.672Z" fill="#DADBD8"/>
<path d="M135.692 360.788C134.634 359.729 134.634 358.007 135.692 356.948C136.749 355.891 138.465 355.899 139.522 356.956L136.635 352.625L132.762 354.582L131.914 358.651L135.692 360.788Z" fill="#DADBD8"/>
<path d="M133.877 358.972C132.82 357.915 132.82 356.191 133.878 355.134C134.935 354.077 136.651 354.084 137.709 355.142C138.766 356.199 138.766 357.907 137.709 358.964C136.651 360.021 134.935 360.029 133.877 358.972ZM141.602 355.493L137.348 351.24L131.544 352.798L129.984 358.604L134.239 362.858L140.043 361.299L141.602 355.493Z" fill="#EDEDEB"/>
<path d="M115.152 46.4148L119.97 51.2343C121.224 52.489 123.277 52.489 124.532 51.2343C125.786 49.9797 125.786 47.9258 124.532 46.6711L119.714 41.8546C118.459 40.5999 116.406 40.5999 115.152 41.8546C113.897 43.1092 113.897 45.1601 115.152 46.4148Z" fill="#EDEDEB"/>
<path d="M111.759 34.4156C115.472 33.0841 119.496 34.8273 120.748 38.3123C122 41.7973 120.005 45.703 116.292 47.0361C112.58 48.3692 108.555 46.6259 107.303 43.1424C106.052 39.6559 108.047 35.7502 111.759 34.4156Z" fill="#DADBD8"/>
<path d="M106.508 42.3296L107.206 44.2734L121.543 39.1251L120.844 37.1813L106.508 42.3296Z" fill="#EDEDEB"/>
<path d="M669.379 544.925C669.379 554.356 538.475 562 376.994 562C215.514 562 84.6094 554.356 84.6094 544.925C84.6094 535.494 215.514 527.848 376.994 527.848C538.475 527.848 669.379 535.494 669.379 544.925Z" fill="#F3F2F1"/>
<path d="M143.35 96.3703C144.284 100.478 145.718 103.256 147.652 104.702C149.585 106.151 151.866 106.573 154.493 105.975C157.194 105.363 159.085 104.01 160.165 101.915C161.246 99.8222 161.269 96.4985 160.234 91.9489C159.362 88.1201 157.954 85.4962 156.009 84.0801C154.062 82.6656 151.767 82.2585 149.122 82.8602C146.587 83.4362 144.756 84.7979 143.629 86.9393C142.501 89.0837 142.408 92.2264 143.35 96.3703ZM130.767 99.1722C129.257 92.5325 129.931 86.9423 132.791 82.3987C135.649 77.8581 140.381 74.8376 146.985 73.3356C153.756 71.7975 159.385 72.4278 163.874 75.2312C168.364 78.0331 171.353 82.7079 172.841 89.2571C173.922 94.0118 174.008 98.0925 173.1 101.499C172.193 104.906 170.418 107.801 167.779 110.181C165.138 112.562 161.561 114.263 157.048 115.288C152.46 116.333 148.497 116.466 145.159 115.688C141.82 114.91 138.857 113.151 136.27 110.411C133.682 107.674 131.848 103.927 130.767 99.1722Z" fill="#17282F"/>
<path d="M190.161 91.596C190.756 94.2229 191.73 96.0446 193.08 97.0625C194.43 98.0774 195.909 98.4016 197.52 98.0366C199.147 97.6657 200.343 96.7413 201.106 95.2649C201.87 93.7871 201.94 91.6804 201.318 88.9449C200.738 86.3904 199.777 84.6094 198.44 83.6006C197.1 82.5917 195.654 82.263 194.101 82.6158C192.454 82.9898 191.239 83.9338 190.455 85.4448C189.669 86.9544 189.571 89.0067 190.161 91.596ZM178.845 94.1973C177.822 89.7019 178.498 85.6529 180.87 82.0488C183.24 78.4462 187.007 76.0575 192.168 74.8843C198.07 73.5437 202.917 74.2404 206.711 76.9774C209.76 79.1836 211.743 82.3022 212.66 86.3346C213.69 90.8691 213.032 94.9241 210.684 98.5026C208.337 102.081 204.508 104.473 199.198 105.679C194.463 106.756 190.36 106.426 186.89 104.684C182.624 102.523 179.942 99.0259 178.845 94.1973Z" fill="#17282F"/>
<path d="M229.511 82.6777C230.041 85.009 230.924 86.6271 232.161 87.5334C233.397 88.4397 234.765 88.7202 236.264 88.3809C237.578 88.0808 238.555 87.2906 239.197 86.0058C239.838 84.7225 239.865 82.7862 239.277 80.1955C238.734 77.8083 237.873 76.1616 236.694 75.2523C235.515 74.3429 234.258 74.0413 232.927 74.3429C231.484 74.6717 230.41 75.5117 229.704 76.8553C228.999 78.2034 228.934 80.1442 229.511 82.6777ZM224.069 111.116L214.82 70.4342L225.393 68.0305L226.382 72.3856C227.429 70.2246 228.487 68.6804 229.561 67.7545C231.01 66.5119 232.734 65.6614 234.732 65.2075C238.672 64.3118 242.062 65.1276 244.902 67.6505C247.743 70.1764 249.669 73.6598 250.678 78.0994C251.792 83.0019 251.468 87.0102 249.705 90.1257C247.942 93.2397 245.267 95.2061 241.678 96.022C239.939 96.417 238.285 96.4819 236.716 96.215C235.148 95.9481 233.667 95.363 232.275 94.4536L235.474 108.522L224.069 111.116Z" fill="#17282F"/>
<path d="M255.508 83.5674L266.478 79.9648C267.243 81.1908 268.107 81.9961 269.071 82.3821C270.033 82.7651 271.209 82.8013 272.596 82.4861C274.112 82.1393 275.214 81.5497 275.899 80.7142C276.437 80.0869 276.624 79.4129 276.46 78.692C276.276 77.8792 275.707 77.3469 274.756 77.0981C274.074 76.9231 272.367 76.9035 269.636 77.0378C265.559 77.2474 262.69 77.2323 261.031 76.9986C259.373 76.7603 257.863 76.0711 256.503 74.922C255.144 73.7744 254.262 72.3102 253.858 70.5368C253.418 68.596 253.602 66.7969 254.41 65.1351C255.22 63.4748 256.535 62.0709 258.356 60.9293C260.178 59.7862 262.754 58.8362 266.083 58.0792C269.6 57.2799 272.254 56.9602 274.052 57.114C275.848 57.2709 277.432 57.7866 278.808 58.6597C280.185 59.5344 281.46 60.8479 282.638 62.6047L272.167 66.0942C271.675 65.212 271.055 64.6254 270.307 64.3283C269.283 63.9378 268.143 63.8835 266.886 64.1715C265.61 64.461 264.732 64.8983 264.251 65.4834C263.772 66.0686 263.604 66.6853 263.752 67.3323C263.915 68.0516 264.409 68.513 265.234 68.7136C266.058 68.9157 267.742 68.881 270.289 68.6125C274.141 68.1858 277.069 68.1421 279.072 68.4829C281.076 68.8237 282.723 69.5882 284.013 70.7705C285.304 71.9543 286.14 73.3869 286.523 75.0698C286.909 76.7693 286.772 78.5397 286.111 80.381C285.449 82.2223 284.12 83.869 282.127 85.3242C280.133 86.7764 277.23 87.9391 273.42 88.8062C268.036 90.0292 264.028 90.1317 261.395 89.1168C258.76 88.1004 256.799 86.2501 255.508 83.5674Z" fill="#17282F"/>
<path d="M292.933 77.7706L304.486 77.7058L304.543 87.9195L292.99 87.9858L292.933 77.7706ZM292.328 46.2715L304.706 46.2022L304.76 55.7071L302.477 74.8135L294.822 74.8572L292.382 55.775L292.328 46.2715Z" fill="#17282F"/>
<path d="M164.773 140.041C164.518 140.276 163.785 141.224 162.734 144.898C161.347 149.743 162.202 154.163 163.83 157.333C164.143 156.68 164.36 155.926 164.509 155.219C166.073 147.814 165.617 141.113 164.773 140.041ZM174.705 144.792C174.314 145.524 173.661 147.03 172.684 150.114C171.389 154.198 171.382 157.479 172.103 159.988L172.244 159.61C174.017 154.425 174.881 147.282 174.705 144.792ZM185.52 151.145C185.515 151.145 184.666 151.151 182.765 154.683C180.583 158.732 180.028 162.065 181.064 164.873C181.191 165.217 181.341 165.551 181.518 165.883C182.323 165.539 183.012 164.978 183.51 164.218C185.621 160.99 186.633 154.359 185.847 151.767C185.686 151.236 185.521 151.145 185.52 151.145ZM194.046 175.981L193.775 175.929C186.987 173.301 182.926 170.733 180.817 167.647C179.284 167.955 177.57 167.752 175.943 166.978C174.362 166.227 172.842 164.913 171.75 163.024C170.731 163.808 169.473 164.024 168.092 163.589C166.56 163.107 164.966 161.818 163.64 159.954C162.797 160.563 161.933 160.653 161.3 160.601C156.817 160.236 150.741 151.311 150.305 141.802C150.287 141.386 150.608 141.033 151.024 141.015C151.432 140.98 151.794 141.316 151.812 141.734C152.225 150.759 158.01 158.821 161.422 159.097C161.976 159.151 162.439 158.978 162.828 158.676C160.778 155.083 159.717 149.957 161.285 144.483C162.582 139.952 163.726 138.18 165.103 138.508C167.7 139.154 167.359 149.021 165.984 155.531C165.672 157.006 165.222 158.066 164.71 158.823C165.899 160.579 167.309 161.762 168.544 162.151C169.647 162.496 170.464 162.204 171.069 161.629C169.884 158.71 169.638 154.731 171.247 149.657C173.362 142.98 174.215 142.797 174.724 142.69C175.083 142.615 175.442 142.732 175.697 143.022C177.09 144.595 175.425 154.968 173.67 160.098C173.442 160.766 173.159 161.349 172.83 161.843C173.767 163.678 175.145 164.929 176.59 165.615C177.748 166.167 178.936 166.366 180.017 166.265C179.882 165.98 179.759 165.69 179.649 165.396C178.455 162.157 179.039 158.42 181.436 153.968C183.027 151.016 184.324 149.639 185.518 149.637H185.52C185.876 149.637 186.538 149.769 187.008 150.636C188.323 153.062 187.37 161.07 184.772 165.043C184.16 165.98 183.314 166.688 182.332 167.151C184.353 169.808 188.189 172.149 194.319 174.525C194.707 174.675 194.9 175.111 194.749 175.5C194.634 175.798 194.348 175.981 194.046 175.981Z" fill="#17282F"/>
<path d="M255.3 238.159C255.384 238.394 255.721 239.014 257.058 240.252C259.301 242.324 261.338 243.245 263.288 243.031C263.449 243.016 263.611 242.992 263.77 242.958C263.663 242.502 263.446 242.078 263.116 241.714C260.994 239.389 256.33 237.917 255.3 238.159ZM250.037 244.566C250.544 244.94 251.271 245.435 252.308 246.085C254.354 247.363 256.179 247.954 257.738 248.078C255.238 246.529 251.97 245.157 250.037 244.566ZM251.376 255.024C249.076 255.024 246.658 254.501 244.498 253.232C244.138 253.02 244.019 252.56 244.228 252.2C244.439 251.839 244.902 251.723 245.261 251.931C250.64 255.089 257.594 252.886 259.025 250.584C259.191 250.314 259.343 249.972 259.246 249.573C257.119 249.799 254.502 249.235 251.509 247.362C247.671 244.964 247.375 244.251 247.4 243.679C247.415 243.342 247.606 243.047 247.914 242.891C249.414 242.129 256.215 245.264 259.05 247.127C259.421 247.371 259.735 247.635 259.988 247.915C261.242 247.609 262.213 246.962 262.858 246.187C263.3 245.656 263.597 245.076 263.743 244.495L263.442 244.531C261.03 244.776 258.612 243.74 256.036 241.358C254.266 239.722 253.578 238.594 253.807 237.7C253.879 237.417 254.118 236.908 254.89 236.715C256.977 236.197 262.125 238.391 264.23 240.698C264.704 241.217 265.027 241.827 265.197 242.483C267.165 241.559 269.246 239.486 271.71 236.043C271.953 235.703 272.423 235.625 272.763 235.868C273.1 236.109 273.179 236.581 272.938 236.92C270.087 240.9 267.712 243.156 265.327 244.077C265.233 245.139 264.794 246.219 264.016 247.154C263.252 248.069 262.137 248.856 260.727 249.282C260.878 249.96 260.742 250.678 260.305 251.379C259.034 253.427 255.387 255.024 251.376 255.024Z" fill="#17282F"/>
<path d="M152.452 274.556L191.598 205.839L202.52 265.459L152.452 274.556ZM271.354 252.955L247.857 257.223L226.523 140.788L181.188 149.024L107.312 280.218L115.245 323.51L210.003 306.296L216.49 341.705L261.827 333.47L255.339 298.062L278.837 293.792L271.354 252.955Z" fill="#CE2D4F"/>
<path d="M460.591 132.868C459.715 124.825 458.107 117.677 455.77 111.428C453.434 105.177 449.92 99.05 445.229 93.0452C440.539 87.0418 434.153 81.8317 426.071 77.4132C417.989 72.9993 407.321 69.923 394.069 68.1963C366.484 64.6028 344.98 69.4993 329.553 82.8843C314.125 96.2708 303.975 121.913 299.095 159.81C297.11 175.224 296.619 189.471 297.623 202.555C298.621 215.635 301.022 226.158 304.827 234.12C310.031 245.308 317.396 254.243 326.917 260.92C336.437 267.598 349.482 272.019 366.05 274.179C395.602 278.027 417.503 272.355 431.752 257.156C446 241.959 455.453 216.271 460.11 180.096C462.188 163.959 462.348 148.215 460.591 132.868Z" fill="#CE2D4F"/>
<path d="M379.667 258.699C376.041 258.574 372.18 258.247 368.194 257.726C354.39 255.93 343.709 252.436 336.447 247.341C329.282 242.316 323.859 235.705 319.871 227.124L319.795 226.969C316.897 220.902 315.003 212.26 314.164 201.291C313.252 189.396 313.718 176.153 315.549 161.928C320.931 120.124 332.048 102.683 340.426 95.4142C350.195 86.9393 363.379 83.1075 380.735 83.7031C384.291 83.8238 388.056 84.142 391.926 84.6456C403.065 86.0963 411.878 88.5619 418.121 91.97C424.167 95.2755 428.89 99.0742 432.159 103.259C435.785 107.897 438.5 112.599 440.233 117.235C442.077 122.168 443.379 128.032 444.103 134.664C445.709 148.702 445.556 163.247 443.661 177.977C439.479 210.458 431.401 233.28 419.653 245.809C410.939 255.105 397.86 259.322 379.67 258.699H379.667Z" fill="#17282F"/>
<path d="M370.575 151.818C358.067 151.39 348.271 140.9 348.7 128.39C349.129 115.866 359.62 106.071 372.129 106.499C384.638 106.929 394.434 117.417 394.004 129.941C393.575 142.452 383.084 152.246 370.575 151.818ZM409.173 133.313L409.369 127.601L405.861 126.456C405.718 124.505 405.391 122.576 404.926 120.72L407.898 118.529L405.881 113.163L402.203 113.459C401.327 111.725 400.297 110.073 399.143 108.526L401.048 105.347L397.131 101.17L393.845 102.852C392.365 101.594 390.804 100.455 389.133 99.4481L389.665 95.7987L384.451 93.4312L382.062 96.2331C380.24 95.6419 378.355 95.2001 376.404 94.9075L375.514 91.3305L369.788 91.1345L368.657 94.6406C366.689 94.8004 364.777 95.1126 362.921 95.5755L360.713 92.6183L355.349 94.6225L355.645 98.3005C353.911 99.1917 352.259 100.22 350.712 101.375L347.548 99.4707L343.355 103.37L345.037 106.673C343.78 108.137 342.64 109.713 341.647 111.385L338 110.837L335.619 116.051L338.432 118.441C337.843 120.263 337.384 122.163 337.107 124.099L333.515 125.003L333.32 130.715L336.841 131.861C336.985 133.827 337.312 135.741 337.776 137.596L334.804 139.79L336.823 145.154L340.5 144.859C341.376 146.593 342.406 148.242 343.561 149.791L341.655 152.97L345.571 157.147L348.859 155.464C350.324 156.722 351.899 157.863 353.57 158.871L353.022 162.519L358.237 164.885L360.642 162.086C362.462 162.676 364.349 163.117 366.3 163.411L367.188 166.987L372.916 167.183L374.047 163.675C376.013 163.517 377.925 163.206 379.782 162.74L381.974 165.698L387.34 163.693L387.058 160.018C388.794 159.127 390.428 158.096 391.992 156.942L395.156 158.847L399.348 154.946L397.667 151.646C398.923 150.179 400.063 148.603 401.057 146.932L404.704 147.481L407.086 142.265L404.27 139.875C404.861 138.054 405.318 136.169 405.596 134.217L409.173 133.313Z" fill="#CE2D4F"/>
<path d="M406.798 259.24L402.948 258.809L402.521 256.34C402.428 256.319 402.334 256.298 402.242 256.276C409.315 254.16 415.084 250.682 419.652 245.809C424.407 240.737 428.561 233.98 432.099 225.577L432.852 228.192L430.74 229.531C430.962 230.81 431.075 232.12 431.083 233.444L433.397 234.387L432.984 238.238L430.499 238.665C430.208 239.926 429.83 241.165 429.329 242.4L431.104 244.156L429.241 247.55L426.806 247.009C426.028 248.095 425.182 249.089 424.268 250.01L425.248 252.32L422.217 254.74L420.186 253.294C419.067 253.997 417.9 254.591 416.699 255.098L416.702 257.603L412.994 258.694L411.655 256.567C410.36 256.787 409.049 256.918 407.743 256.926L406.798 259.24Z" fill="#CE2D4F"/>
<path d="M397.012 256.948L393.617 255.084L394.177 252.631C393.091 251.872 392.097 251.025 391.176 250.112L388.847 251.091L386.427 248.06L387.875 246.011C387.171 244.91 386.576 243.743 386.07 242.542L383.563 242.545L382.473 238.819L384.602 237.481C384.381 236.203 384.25 234.892 384.259 233.586L381.945 232.624L382.359 228.774L384.826 228.366C385.117 227.087 385.512 225.847 386.014 224.611L384.239 222.855L386.101 219.461L388.535 220.004C389.297 218.918 390.159 217.924 391.057 217.001L390.095 214.691L393.106 212.271L395.157 213.718C396.276 213.016 397.443 212.42 398.643 211.915L398.622 209.407L402.349 208.318L403.688 210.446C404.983 210.224 406.275 210.093 407.599 210.086L408.543 207.772L412.393 208.204L412.822 210.669C414.082 210.96 415.34 211.339 416.557 211.856L418.33 210.064L421.725 211.927L421.164 214.38C422.251 215.14 423.245 215.986 424.166 216.9L426.477 215.938L428.897 218.951L427.467 221.002C428.172 222.101 428.766 223.27 429.271 224.487L431.777 224.467L432.098 225.577C428.561 233.98 424.406 240.737 419.651 245.809C415.084 250.682 409.314 254.16 402.241 256.276C401.074 255.995 399.912 255.636 398.784 255.173L397.012 256.948ZM407.664 226.784C405.292 226.784 402.995 228.041 401.772 230.269C399.984 233.526 401.168 237.623 404.424 239.413C405.449 239.976 406.556 240.243 407.649 240.243C410.03 240.243 412.344 238.976 413.57 236.743C415.357 233.487 414.156 229.405 410.899 227.618C409.87 227.052 408.759 226.784 407.664 226.784Z" fill="#B72544"/>
<path d="M424.592 187.582C418.657 187.378 414.021 182.396 414.223 176.478C414.427 170.543 419.392 165.906 425.326 166.109C431.262 166.311 435.899 171.277 435.695 177.214C435.493 183.132 430.526 187.785 424.592 187.582ZM454.346 173.069L449.851 169.964L449.848 169.953C449.403 168.32 448.789 166.747 448.04 165.271L449.192 160.751L442.673 153.769L438.083 154.609C436.662 153.76 435.136 153.042 433.539 152.486L433.527 152.483L430.737 147.784L421.189 147.457L418.085 151.952L418.067 151.957C416.435 152.402 414.865 153.014 413.391 153.762L408.873 152.61L401.889 159.132L402.729 163.712L402.726 163.716C401.86 165.153 401.158 166.679 400.603 168.276L395.905 171.066L395.578 180.615L400.077 183.72C400.521 185.365 401.116 186.933 401.88 188.423V188.425L400.732 192.931L407.252 199.914L411.813 199.079C413.252 199.929 414.779 200.65 416.398 201.205L416.401 201.206L419.187 205.898L428.735 206.225L431.836 201.734C433.488 201.289 435.059 200.676 436.553 199.925H436.555L441.052 201.071L448.034 194.552L447.195 189.97C448.061 188.533 448.764 187.006 449.319 185.407L454.019 182.616L454.346 173.069Z" fill="white"/>
<path d="M479.479 87.0946C479.087 84.899 480.551 82.8043 482.741 82.4123C484.936 82.0202 487.03 83.4784 487.422 85.6741C487.815 87.8682 486.357 89.9613 484.161 90.3549C481.972 90.747 479.873 89.2887 479.479 87.0946ZM487.152 96.8755L487.939 94.983L487.942 94.9799C488.506 94.6874 489.035 94.339 489.519 93.947L491.269 94.0148L493.319 91.0697L492.65 89.4516C492.849 88.862 492.994 88.2467 493.071 87.6149L493.072 87.6103L494.577 86.2154L493.945 82.6837L492.05 81.8996L492.047 81.8935C491.756 81.3295 491.407 80.8002 491.015 80.3177L491.083 78.5684L488.138 76.5175L486.523 77.1871L486.521 77.1855C485.926 76.9805 485.309 76.8432 484.679 76.7663L483.285 75.2613L479.754 75.8917L478.966 77.7887C478.398 78.0798 477.868 78.4236 477.381 78.8217L475.637 78.7554L473.586 81.699L474.252 83.3065C474.053 83.9037 473.909 84.5204 473.832 85.1583V85.1598L472.328 86.5532L472.96 90.085L474.854 90.8691C475.147 91.4407 475.496 91.97 475.888 92.4586L475.89 92.4601L475.824 94.2003L478.767 96.2512L480.382 95.5831C480.98 95.7882 481.595 95.9255 482.225 96.0024H482.227L483.622 97.5074L487.152 96.8755Z" fill="#CE2D4F"/>
<path d="M445.776 86.8714L444.625 85.8988C446.626 83.5282 449.466 80.5243 453.685 78.315L454.383 79.6526C449.886 82.0051 447.006 85.4162 445.776 86.8714Z" fill="#CE2D4F"/>
<path d="M457.814 78.2939L457.219 76.9065C462.924 74.4636 468.883 73.5105 474.921 74.0715L474.781 75.5735C468.99 75.0216 463.284 75.9474 457.814 78.2939Z" fill="#CE2D4F"/>
<path d="M454.974 88.7263L453.727 87.8788C456.824 83.3291 462.945 79.3676 468.614 78.2442L468.906 79.722C463.595 80.7776 457.866 84.4798 454.974 88.7263Z" fill="#CE2D4F"/>
<path d="M338.342 192.694C335.6 196.832 334.634 201.79 335.623 206.655C336.611 211.52 339.434 215.709 343.572 218.452C352.116 224.111 363.672 221.771 369.33 213.231C374.991 204.69 372.649 193.13 364.109 187.464C355.571 181.805 344.012 184.149 338.342 192.694ZM353.811 223.047C349.999 223.047 346.147 221.969 342.738 219.71C338.265 216.745 335.213 212.215 334.145 206.955C333.076 201.695 334.121 196.336 337.084 191.861H337.086C343.216 182.625 355.713 180.088 364.942 186.206C374.175 192.332 376.707 204.829 370.588 214.064C366.727 219.891 360.327 223.047 353.811 223.047ZM346.395 227.927L346.607 227.957C348.222 228.432 349.902 228.746 351.6 228.886C351.783 228.901 351.953 228.982 352.08 229.113L355.149 232.277L364.049 230.472L365.647 226.352C365.714 226.182 365.84 226.04 366.002 225.956C367.514 225.169 368.942 224.231 370.247 223.166C370.384 223.053 370.539 222.977 370.735 222.996L375.968 223.075L380.985 215.505L378.868 210.705C378.796 210.542 378.785 210.36 378.835 210.19C379.311 208.544 379.624 206.864 379.762 205.197C379.777 205.014 379.857 204.845 379.988 204.717L383.155 201.647L381.35 192.748L377.238 191.153C377.063 191.085 376.92 190.955 376.837 190.788C376.053 189.28 375.113 187.856 374.045 186.556C373.932 186.417 373.87 186.244 373.874 186.066L373.953 180.827L366.385 175.81L361.595 177.923C361.433 177.992 361.252 178.004 361.081 177.958C359.446 177.483 357.761 177.17 356.07 177.029C355.888 177.014 355.719 176.932 355.592 176.802L352.525 173.642L343.626 175.447L342.032 179.559C341.966 179.729 341.839 179.871 341.676 179.954C340.174 180.737 338.745 181.678 337.428 182.752C337.291 182.863 337.107 182.943 336.938 182.923L331.705 182.842L326.69 190.414L328.804 195.206C328.894 195.413 328.888 195.648 328.789 195.849C328.364 197.355 328.051 199.038 327.91 200.725C327.895 200.906 327.815 201.075 327.683 201.203L324.52 204.272L326.323 213.172L330.434 214.765C330.618 214.836 330.766 214.976 330.847 215.152C331.628 216.648 332.565 218.069 333.626 219.361C333.74 219.5 333.803 219.676 333.8 219.854L333.72 225.09L341.29 230.109L346.09 227.992L346.395 227.927ZM354.895 233.852C354.693 233.852 354.497 233.772 354.354 233.622L351.192 230.364C349.581 230.211 347.989 229.916 346.449 229.48L341.521 231.653C341.287 231.762 341.016 231.733 340.8 231.593L332.544 226.119C332.33 225.977 332.203 225.737 332.206 225.479L332.289 220.105C331.286 218.856 330.39 217.502 329.624 216.068L325.394 214.429C325.156 214.335 324.98 214.127 324.928 213.875L322.96 204.168C322.909 203.916 322.991 203.655 323.175 203.476L326.433 200.315C326.584 198.714 326.88 197.118 327.314 195.567L325.142 190.644C325.038 190.409 325.063 190.138 325.204 189.924L330.677 181.666C330.819 181.452 331.019 181.319 331.318 181.328L336.688 181.411C337.948 180.404 339.306 179.509 340.728 178.749L342.368 174.518C342.462 174.278 342.67 174.102 342.922 174.05L352.629 172.082C352.882 172.033 353.142 172.113 353.321 172.295L356.479 175.551C358.083 175.702 359.68 175.999 361.233 176.433L366.154 174.265C366.388 174.16 366.659 174.185 366.875 174.326L375.131 179.799C375.345 179.941 375.472 180.182 375.467 180.44L375.386 185.816C376.39 187.066 377.283 188.42 378.046 189.85L382.279 191.492C382.52 191.584 382.695 191.792 382.747 192.044L384.715 201.751C384.766 202.003 384.684 202.264 384.5 202.443L381.24 205.605C381.091 207.19 380.795 208.781 380.358 210.346L382.531 215.275C382.635 215.51 382.612 215.783 382.471 215.997L376.998 224.252C376.856 224.466 376.63 224.573 376.359 224.589L370.986 224.508C369.734 225.506 368.378 226.398 366.95 227.161L365.307 231.401C365.213 231.642 365.003 231.817 364.753 231.869L355.045 233.838L354.895 233.852Z" fill="white"/>
<path d="M522.386 250.402L580.833 197.127L572.816 257.209L522.386 250.402ZM642.148 266.565L618.482 263.371L634.135 146.035L588.471 139.873L477.704 241.853L471.883 285.48L567.327 298.361L562.566 334.043L608.232 340.205L612.991 304.524L636.659 307.716L642.148 266.565Z" fill="#CE2D4F"/>
<path d="M594.356 339.087L594.219 339.075C593.81 339 593.539 338.606 593.614 338.198L628.79 145.279C628.864 144.871 629.26 144.616 629.666 144.673C630.076 144.747 630.347 145.141 630.272 145.551L595.097 338.468C595.03 338.833 594.713 339.087 594.356 339.087Z" fill="#17282F"/>
<path d="M625.565 148.52C625.542 149.202 624.97 149.734 624.287 149.713C623.606 149.689 623.072 149.116 623.094 148.434C623.119 147.752 623.69 147.217 624.372 147.241C625.055 147.265 625.589 147.835 625.565 148.52Z" fill="#17282F"/>
<path d="M620.541 174.608C620.517 175.29 619.946 175.824 619.264 175.801C618.581 175.779 618.047 175.206 618.071 174.524C618.094 173.842 618.667 173.307 619.348 173.331C620.03 173.354 620.564 173.927 620.541 174.608Z" fill="#17282F"/>
<path d="M615.518 200.698C615.495 201.38 614.922 201.914 614.24 201.891C613.559 201.867 613.025 201.295 613.048 200.612C613.072 199.931 613.643 199.397 614.325 199.419C615.008 199.444 615.542 200.017 615.518 200.698Z" fill="#17282F"/>
<path d="M605.627 227.857C605.604 228.539 605.033 229.073 604.35 229.05C603.668 229.026 603.134 228.454 603.157 227.773C603.181 227.091 603.753 226.557 604.434 226.58C605.117 226.604 605.651 227.176 605.627 227.857Z" fill="#17282F"/>
<path d="M605.462 252.878C605.439 253.56 604.867 254.092 604.184 254.071C603.503 254.047 602.969 253.474 602.993 252.792C603.016 252.111 603.587 251.575 604.269 251.599C604.952 251.623 605.486 252.195 605.462 252.878Z" fill="#17282F"/>
<path d="M600.44 278.967C600.415 279.65 599.844 280.182 599.162 280.159C598.481 280.137 597.945 279.564 597.97 278.882C597.992 278.2 598.565 277.667 599.247 277.689C599.928 277.712 600.462 278.285 600.44 278.967Z" fill="#17282F"/>
<path d="M595.416 305.056C595.394 305.738 594.822 306.273 594.14 306.249C593.457 306.227 592.923 305.654 592.946 304.972C592.97 304.289 593.542 303.757 594.223 303.779C594.906 303.802 595.44 304.375 595.416 305.056Z" fill="#17282F"/>
<path d="M590.385 331.146C590.362 331.828 589.789 332.363 589.108 332.339C588.426 332.315 587.892 331.742 587.915 331.06C587.939 330.379 588.51 329.846 589.192 329.868C589.874 329.892 590.409 330.465 590.385 331.146Z" fill="#17282F"/>
<path d="M604.401 228.569C604.053 228.569 603.741 228.328 603.665 227.973C603.578 227.566 603.836 227.167 604.243 227.078L607.989 226.274C608.402 226.193 608.797 226.444 608.885 226.855C608.972 227.26 608.713 227.661 608.306 227.75L604.56 228.554L604.401 228.569Z" fill="#17282F"/>
<path d="M616.895 214.677C616.895 214.677 613.52 223.468 612.385 228.792C611.248 234.119 611.18 246.021 611.18 246.021" fill="#17282F"/>
<path d="M611.184 246.775H611.179C610.763 246.772 610.427 246.433 610.43 246.017C610.433 245.528 610.511 233.975 611.651 228.634C612.787 223.312 616.056 214.768 616.195 214.406C616.344 214.018 616.778 213.825 617.169 213.973C617.558 214.121 617.753 214.558 617.603 214.946C617.569 215.035 614.236 223.744 613.126 228.949C612.019 234.141 611.938 245.908 611.938 246.026C611.935 246.44 611.598 246.775 611.184 246.775Z" fill="#17282F"/>
<path d="M335.453 376.937C337.548 343.155 333.695 281.743 397.197 289.872C465.262 298.584 445.789 378.175 445.789 378.175L335.453 376.937Z" fill="#17282F"/>
<path d="M406.991 328.921C406.991 344.225 394.585 356.63 379.281 356.63C363.977 356.63 351.57 344.225 351.57 328.921C351.57 313.617 363.977 301.211 379.281 301.211C394.585 301.211 406.991 313.617 406.991 328.921Z" fill="white"/>
<path d="M382.925 301.256C369.801 299.012 355.766 308.688 354.383 318.49L406.419 323.275C404.586 312.102 393.339 303.033 382.925 301.256Z" fill="#17282F"/>
<path d="M400.49 328.231C400.117 335.476 396.169 341.162 391.671 340.93C387.172 340.699 383.828 334.639 384.2 327.396C384.571 320.151 388.519 314.465 393.017 314.697C397.516 314.926 400.862 320.987 400.49 328.231Z" fill="#17282F"/>
<path d="M379.282 302.719C364.833 302.719 353.079 314.472 353.079 328.92C353.079 343.369 364.833 355.122 379.282 355.122C393.728 355.122 405.483 343.369 405.483 328.92C405.483 314.472 393.728 302.719 379.282 302.719ZM379.282 358.138C363.17 358.138 350.062 345.032 350.062 328.92C350.062 312.811 363.17 299.703 379.282 299.703C395.391 299.703 408.499 312.811 408.499 328.92C408.499 345.032 395.391 358.138 379.282 358.138Z" fill="#CE2D4F"/>
<path d="M440.445 364.511L438.936 364.478C439.702 356.571 439.93 345.237 437.178 333.832C437.08 333.428 437.328 333.021 437.733 332.923C437.79 332.909 437.847 332.903 437.903 332.903C438.244 332.903 438.559 333.131 438.642 333.479C441.429 345.015 441.215 356.478 440.445 364.511Z" fill="#57666B"/>
<path d="M433.843 322.525C433.556 322.525 433.283 322.362 433.157 322.085C431.217 317.855 428.812 313.969 426.006 310.538C425.743 310.215 425.79 309.742 426.113 309.478C426.253 309.362 426.422 309.306 426.591 309.306C426.808 309.306 427.025 309.401 427.174 309.583C430.061 313.114 432.535 317.108 434.527 321.457C434.702 321.836 434.535 322.284 434.156 322.456L433.843 322.525Z" fill="#57666B"/>
<path d="M194.129 535.393C193.94 535.393 193.755 535.391 193.568 535.387C189.404 535.271 186.123 531.804 186.237 527.642C186.35 523.479 189.78 520.26 193.981 520.311L194.126 520.313C198.482 520.313 208.963 515.021 230.888 480.458C232.067 478.602 233.996 477.352 236.172 477.035C238.351 476.726 240.552 477.371 242.211 478.814C269.266 502.402 297.936 517.087 298.223 517.232C301.936 519.117 303.416 523.656 301.533 527.367C299.648 531.08 295.11 532.565 291.399 530.679C290.261 530.103 265.201 517.289 238.924 495.775C220.547 523.4 206.91 535.393 194.129 535.393Z" fill="#17282F"/>
<path d="M240.78 477.458C240.567 477.458 240.352 477.445 240.135 477.413C237.661 477.06 235.942 474.768 236.297 472.295C237.369 464.79 236.039 436.667 226.532 414.801C225.665 412.808 226.338 410.481 228.134 409.258C248.79 395.181 292.791 393.498 294.655 393.433C297.138 393.378 299.245 395.3 299.333 397.795C299.42 400.293 297.466 402.387 294.97 402.475C294.561 402.49 256.094 403.965 236.327 414.843C244.748 436.616 246.655 463.757 245.253 473.575C244.93 475.831 242.995 477.458 240.78 477.458Z" fill="#17282F"/>
<path d="M248.384 471.603C245.375 464.506 231.815 465.311 223.852 471.393C219.597 474.643 213.838 484.424 213.232 487.968C212.627 491.513 215.083 494.725 219.3 494.358C224.498 493.909 231.637 486.354 231.637 486.354C226.888 491.011 233.015 494.295 242.158 487.564C247.229 483.827 251.753 479.548 248.384 471.603Z" fill="#CE2D4F"/>
<path d="M522.866 346.474C523.545 346.727 524.316 346.876 525.033 346.961C532.546 347.85 539.181 346.799 540.174 345.863C539.917 345.631 538.905 344.985 535.154 344.267C530.203 343.325 525.878 344.566 522.866 346.474ZM520.963 354.952L521.354 355.057C526.677 356.362 533.867 356.583 536.333 356.179C535.568 355.856 534.009 355.341 530.85 354.644C526.668 353.723 523.399 354.009 520.963 354.952ZM515.936 364.856C516.352 365.628 516.972 366.265 517.775 366.691C521.177 368.503 527.873 368.917 530.384 367.904C530.898 367.696 530.975 367.524 530.975 367.522C530.975 367.518 530.892 366.675 527.203 365.096C522.976 363.288 519.605 363.034 516.902 364.315C516.572 364.473 516.249 364.653 515.936 364.856ZM507.755 378.929L507.545 378.899C507.145 378.784 506.915 378.365 507.029 377.967C509.038 370.97 511.232 366.694 514.117 364.318C513.675 362.816 513.725 361.091 514.348 359.403C514.954 357.761 516.126 356.129 517.908 354.872C517.035 353.928 516.711 352.693 517.018 351.281C517.361 349.711 518.502 348.009 520.239 346.52C519.558 345.736 519.39 344.88 519.384 344.248C519.347 339.749 527.691 332.899 537.123 331.612C537.536 331.535 537.916 331.843 537.972 332.256C538.028 332.669 537.738 333.049 537.325 333.105C528.372 334.327 520.864 340.81 520.892 344.234C520.897 344.789 521.104 345.236 521.438 345.596C524.834 343.233 529.845 341.713 535.436 342.787C540.065 343.672 541.947 344.649 541.728 346.054C541.318 348.698 531.46 349.244 524.854 348.457C523.358 348.279 522.262 347.926 521.461 347.484C519.819 348.828 518.768 350.336 518.492 351.601C518.246 352.732 518.611 353.519 519.238 354.068C522.039 352.625 525.979 352.022 531.176 353.171C538.017 354.68 538.274 355.514 538.426 356.01C538.536 356.366 538.447 356.73 538.183 357.009C536.742 358.536 526.261 357.812 520.995 356.521C520.31 356.354 519.704 356.125 519.182 355.841C517.436 356.939 516.316 358.425 515.762 359.925C515.319 361.128 515.218 362.327 515.423 363.398C515.694 363.235 515.97 363.089 516.254 362.953C519.374 361.472 523.148 361.72 527.796 363.709C530.88 365.03 532.367 366.197 532.475 367.387C532.509 367.739 532.439 368.412 531.616 368.958C529.316 370.486 521.256 370.255 517.065 368.023C516.077 367.495 515.295 366.719 514.746 365.782C512.28 368.034 510.293 372.064 508.479 378.381C508.384 378.713 508.082 378.929 507.755 378.929Z" fill="#17282F"/>
<path d="M311.446 532.874C312.438 532.557 312.106 531.598 310.996 531.598H290.58C251.702 527.48 224.538 533 241.656 534.299C258.771 535.601 240.449 535.328 227.949 540.056C215.451 544.785 320.924 545.977 330.517 540.056C339.365 534.597 297.669 537.29 311.446 532.874Z" fill="#17282F"/>
<path d="M457.635 538.893L279.99 533.003L272.617 360.757L482.397 365.449L457.635 538.893Z" fill="#CE2D4F"/>
<path d="M335.456 535.596C335.067 535.596 334.737 535.3 334.705 534.904L320.463 361.905C320.43 361.49 320.738 361.127 321.154 361.092C321.579 361.07 321.934 361.367 321.967 361.781L336.208 534.781C336.242 535.197 335.934 535.56 335.518 535.594L335.456 535.596Z" fill="#17282F"/>
<path d="M457.633 538.893L505.379 531.623L520.418 371.458L482.394 365.449L457.633 538.893Z" fill="#CE2D4F"/>
<path d="M457.633 538.893L459.498 525.827C459.703 525.822 459.905 525.819 460.101 525.819C465.841 525.819 467.84 528.42 467.951 528.572C467.827 528.402 467.777 528.296 467.777 528.296L480.758 520.622C480.475 520.142 475.103 511.385 461.647 510.768L482.394 365.449L520.418 371.458L515.272 426.262L515.237 426.639L508.921 493.894L508.887 494.271L507.377 510.342L507.343 510.719L505.379 531.623L457.633 538.893Z" fill="#B72544"/>
<path d="M295.17 499.803L290.791 397.465C290.334 386.785 299 377.938 309.689 378.178L442.482 381.147C453.57 381.396 461.95 391.279 460.383 402.259L445.661 505.394C444.326 514.741 436.168 521.583 426.732 521.27L313.043 517.502C303.373 517.181 295.585 509.466 295.17 499.803Z" fill="#17282F"/>
<path d="M309.515 409.582L330.06 410.235L329.891 415.533L317.03 415.124L316.904 419.066L328.836 419.446L328.674 424.505L316.743 424.126L316.588 429.017L329.822 429.439L329.643 435.056L308.727 434.391L309.515 409.582Z" fill="white"/>
<path d="M342.045 420.679L345.277 420.782C345.627 420.792 346.307 420.702 347.319 420.509C347.83 420.423 348.252 420.177 348.587 419.77C348.922 419.363 349.098 418.888 349.115 418.347C349.14 417.545 348.907 416.923 348.412 416.478C347.919 416.033 346.972 415.787 345.573 415.743L342.205 415.635L342.045 420.679ZM333.875 435.191L334.665 410.381L347.441 410.788C349.812 410.864 351.615 411.125 352.855 411.571C354.094 412.016 355.079 412.802 355.812 413.926C356.545 415.051 356.886 416.403 356.834 417.981C356.791 419.359 356.459 420.536 355.841 421.516C355.222 422.496 354.39 423.28 353.342 423.867C352.675 424.241 351.767 424.541 350.618 424.764C351.522 425.099 352.178 425.425 352.585 425.742C352.861 425.954 353.256 426.402 353.77 427.085C354.284 427.769 354.627 428.293 354.794 428.661L358.279 435.969L349.615 435.691L345.76 427.98C345.271 426.983 344.829 426.329 344.433 426.024C343.891 425.623 343.271 425.411 342.572 425.389L341.896 425.366L341.575 435.436L333.875 435.191Z" fill="white"/>
<path d="M369.006 421.536L372.238 421.64C372.588 421.652 373.268 421.56 374.28 421.365C374.791 421.281 375.215 421.034 375.548 420.628C375.883 420.219 376.059 419.746 376.076 419.204C376.101 418.403 375.868 417.779 375.373 417.335C374.88 416.89 373.933 416.645 372.534 416.602L369.166 416.494L369.006 421.536ZM360.836 436.049L361.626 411.24L374.403 411.647C376.772 411.722 378.576 411.983 379.816 412.428C381.055 412.874 382.04 413.659 382.773 414.783C383.506 415.908 383.847 417.261 383.795 418.84C383.752 420.216 383.421 421.394 382.803 422.375C382.183 423.355 381.351 424.137 380.304 424.727C379.636 425.101 378.728 425.398 377.579 425.621C378.483 425.956 379.139 426.281 379.547 426.6C379.822 426.811 380.217 427.258 380.731 427.942C381.245 428.626 381.588 429.151 381.756 429.518L385.24 436.825L376.576 436.55L372.72 428.838C372.233 427.841 371.79 427.188 371.393 426.881C370.854 426.48 370.232 426.268 369.534 426.245L368.857 426.224L368.536 436.295L360.836 436.049Z" fill="white"/>
<path d="M394.184 424.743C394.104 427.25 394.513 429.064 395.408 430.187C396.304 431.311 397.553 431.898 399.156 431.95C400.802 432.003 402.095 431.507 403.031 430.463C403.968 429.421 404.48 427.511 404.568 424.735C404.643 422.402 404.226 420.679 403.319 419.572C402.41 418.464 401.151 417.885 399.537 417.832C397.99 417.784 396.732 418.292 395.761 419.357C394.79 420.421 394.264 422.217 394.184 424.743ZM386.519 424.467C386.648 420.415 387.876 417.298 390.204 415.115C392.533 412.93 395.71 411.901 399.738 412.029C403.868 412.161 407.014 413.37 409.178 415.657C411.34 417.946 412.358 421.088 412.232 425.081C412.14 427.981 411.576 430.343 410.541 432.167C409.505 433.992 408.05 435.391 406.172 436.365C404.295 437.34 401.98 437.781 399.227 437.694C396.429 437.605 394.128 437.086 392.323 436.136C390.516 435.186 389.076 433.729 387.998 431.765C386.92 429.798 386.427 427.366 386.519 424.467Z" fill="white"/>
<path d="M424.241 423.294L427.472 423.398C427.822 423.409 428.502 423.317 429.514 423.124C430.025 423.039 430.448 422.792 430.782 422.385C431.117 421.976 431.294 421.503 431.31 420.962C431.336 420.16 431.102 419.538 430.607 419.093C430.113 418.648 429.167 418.403 427.768 418.358L424.401 418.252L424.241 423.294ZM416.07 437.807L416.859 412.996L429.638 413.403C432.007 413.48 433.81 413.739 435.05 414.186C436.29 414.631 437.276 415.418 438.007 416.541C438.74 417.666 439.081 419.019 439.03 420.596C438.986 421.973 438.656 423.153 438.036 424.131C437.418 425.112 436.584 425.895 435.537 426.484C434.871 426.857 433.963 427.156 432.814 427.379C433.717 427.713 434.373 428.04 434.78 428.357C435.056 428.571 435.451 429.017 435.965 429.702C436.48 430.385 436.822 430.908 436.991 431.276L440.474 438.584L431.811 438.308L427.955 430.594C427.466 429.598 427.024 428.946 426.628 428.639C426.088 428.239 425.467 428.026 424.767 428.004L424.091 427.982L423.77 438.053L416.07 437.807Z" fill="white"/>
<path d="M428.27 479.96C427.733 479.96 427.199 479.743 426.807 479.316L413.899 465.188L399.969 477.914C399.162 478.653 397.911 478.594 397.172 477.789L384.263 463.66L370.334 476.386C369.527 477.125 368.274 477.068 367.538 476.261L354.628 462.133L340.699 474.862C340.313 475.216 339.791 475.401 339.275 475.379C338.751 475.355 338.257 475.124 337.903 474.736L324.993 460.608L311.064 473.334C310.258 474.071 309.005 474.013 308.268 473.209C307.53 472.402 307.588 471.149 308.394 470.413L323.784 456.349C324.59 455.609 325.844 455.668 326.581 456.475L339.489 470.605L353.419 457.876C353.806 457.521 354.325 457.339 354.844 457.358C355.367 457.382 355.862 457.613 356.216 458.001L369.125 472.129L383.054 459.403C383.859 458.664 385.112 458.721 385.851 459.528L398.76 473.657L412.689 460.929C413.496 460.189 414.748 460.246 415.485 461.055L429.731 476.644C430.469 477.452 430.411 478.705 429.604 479.442C429.224 479.788 428.746 479.96 428.27 479.96Z" fill="white"/>
<path d="M189.63 542.554L180.193 538.053L171.773 497.085L176.343 492.053L189.63 542.554Z" fill="#CE2D4F"/>
<path d="M189.631 542.554L202.155 535.239L191.418 501.484L176.344 492.053L189.631 542.554Z" fill="#CE2D4F"/>
<path d="M189.631 542.554L176.344 492.053L191.418 501.484L202.155 535.239L189.631 542.554Z" fill="#3563B7"/>
<path d="M395.016 550.003C394.66 550.003 394.312 549.996 393.974 549.987C389.812 549.872 386.529 546.406 386.644 542.242C386.758 538.083 390.196 534.811 394.387 534.913C406.003 535.293 430.588 528.157 444.632 514.525C445.501 513.682 446.558 513.061 447.718 512.713C471.526 505.568 480.388 520.002 480.753 520.622L467.772 528.296C467.772 528.296 467.822 528.402 467.946 528.572C467.803 528.373 464.431 523.99 453.694 526.702C436.07 542.789 409.016 550.003 395.016 550.003Z" fill="#17282F"/>
<path d="M394.187 560.024L366.722 558.295L364.555 507.662L401.466 509.04L394.187 560.024Z" fill="#CE2D4F"/>
<path d="M394.18 560.024L400.599 553.636L404.579 522.065L401.459 509.04L394.18 560.024Z" fill="#CE2D4F"/>
<path d="M394.18 560.024L401.459 509.04L404.579 522.065L400.599 553.636L394.18 560.024Z" fill="#3563B7"/>
<path d="M553.302 540.852C552.349 540.852 551.387 540.551 550.568 539.929C534.894 528.016 513.705 506.864 505.574 486.46C505.456 486.163 505.369 485.852 505.316 485.536C501.352 461.961 497.564 412.336 497.404 410.233C497.215 407.744 499.082 405.571 501.572 405.382C504.057 405.198 506.238 407.059 506.426 409.55C506.465 410.057 510.29 460.169 514.159 483.552C522.268 503.393 544.254 523.765 556.044 532.725C558.033 534.237 558.42 537.076 556.908 539.065C556.018 540.235 554.669 540.852 553.302 540.852Z" fill="#17282F"/>
<path d="M574.219 543.136C570.721 543.136 566.756 541.55 562.434 538.424C560.411 536.958 559.957 534.131 561.422 532.107C562.888 530.083 565.716 529.629 567.739 531.094C571.475 533.797 573.515 534.088 574.219 534.088C576.718 534.088 578.743 536.114 578.743 538.612C578.743 541.111 576.718 543.136 574.219 543.136Z" fill="#17282F"/>
<path d="M563.697 538.296C568.538 523.915 588.383 526.758 595.218 528.894C602.052 531.029 608.209 533.714 611.91 536.136C615.612 538.555 615.672 542.598 610.736 544.907C604.65 547.754 589.38 545.227 589.38 545.227C597.285 548.687 589.365 554.234 575.499 548.786C570.986 547.012 561.989 543.563 563.697 538.296Z" fill="#CE2D4F"/>
<path d="M515.531 416.44C513.733 428.657 503.617 437.667 495.387 436.457C487.156 435.247 486.815 424.336 488.61 412.118C490.407 399.901 493.661 391.003 501.891 392.214C510.121 393.424 517.327 404.222 515.531 416.44Z" fill="#17282F"/>
<path d="M317.728 366.432C317.728 367.115 317.176 367.669 316.493 367.669C315.81 367.669 315.258 367.115 315.258 366.432C315.258 365.75 315.81 365.197 316.493 365.197C317.176 365.197 317.728 365.75 317.728 366.432Z" fill="#17282F"/>
<path d="M329.058 375.334C329.058 376.017 328.506 376.57 327.822 376.57C327.139 376.57 326.586 376.017 326.586 375.334C326.586 374.652 327.139 374.097 327.822 374.097C328.506 374.097 329.058 374.652 329.058 375.334Z" fill="#17282F"/>
<path d="M330.44 521.467C330.44 522.149 329.887 522.701 329.205 522.701C328.522 522.701 327.969 522.149 327.969 521.467C327.969 520.785 328.522 520.231 329.205 520.231C329.887 520.231 330.44 520.785 330.44 521.467Z" fill="#17282F"/>
<path d="M341.768 530.368C341.768 531.051 341.215 531.605 340.532 531.605C339.85 531.605 339.297 531.051 339.297 530.368C339.297 529.685 339.85 529.131 340.532 529.131C341.215 529.131 341.768 529.685 341.768 530.368Z" fill="#17282F"/>
<path d="M141.012 530.09H141.009C141.005 530.092 140.443 530.377 140.224 532.896C140.004 535.433 140.464 537.153 141.633 538.149C141.898 538.377 142.2 538.567 142.536 538.721C142.962 538.25 143.254 537.721 143.356 537.171C143.76 534.986 142.718 531.786 141.552 530.49C141.248 530.154 141.053 530.09 141.012 530.09ZM131.525 531.399C131.516 531.967 131.567 532.92 131.792 534.504C132.098 536.657 132.892 538.311 134.082 539.364C133.729 536.335 132.385 532.829 131.525 531.399ZM123.123 532.715C123.036 532.945 122.878 533.709 123.251 535.797C123.746 538.572 125.543 540.414 127.532 541.389C127.523 541.068 127.464 540.711 127.357 540.321C126.173 536.011 123.921 533.041 123.123 532.715ZM124.427 545.196C120.839 545.196 115.986 543.022 113.369 539.241C113.131 538.9 113.217 538.43 113.559 538.193C113.902 537.955 114.371 538.041 114.608 538.384C117.423 542.447 123.625 544.614 126.379 543.331C126.668 543.195 126.903 543.025 127.083 542.82C124.622 541.683 122.373 539.457 121.766 536.062C121.425 534.15 121.153 531.567 122.73 531.211C124.893 530.725 127.722 535.955 128.811 539.92C129.013 540.654 129.076 541.333 129.007 541.945C129.961 542.206 130.898 542.274 131.702 542.157C132.354 542.063 133.283 541.794 133.775 541.034C131.943 539.795 130.71 537.613 130.299 534.716C129.714 530.593 130.152 529.874 130.61 529.522C130.907 529.293 131.284 529.25 131.647 529.405C133.26 530.09 135.214 535.94 135.587 539.25C135.628 539.615 135.628 539.965 135.591 540.295C136.208 540.541 136.888 540.675 137.625 540.691C138.932 540.766 140.225 540.35 141.259 539.742C141.045 539.608 140.842 539.46 140.652 539.297C139.088 537.961 138.457 535.824 138.722 532.766C138.926 530.403 139.465 529.11 140.415 528.705C140.748 528.557 141.427 528.418 142.236 529.066C143.864 530.367 145.386 534.491 144.838 537.445C144.725 538.056 144.461 538.642 144.081 539.181C146.848 539.657 150.742 538.881 154.1 538.052C154.503 537.953 154.913 538.198 155.012 538.602C155.112 539.008 154.866 539.415 154.462 539.515C150.375 540.526 145.976 541.348 142.869 540.446C141.487 541.544 139.543 542.212 137.593 542.199C136.705 542.18 135.877 542.022 135.122 541.734C134.527 542.746 133.422 543.43 131.919 543.651C130.918 543.8 129.738 543.704 128.544 543.363C128.205 543.928 127.692 544.381 127.016 544.698C126.295 545.033 125.409 545.195 124.427 545.196Z" fill="#17282F"/>
<path d="M345.14 556.595L349.227 549.508L345.14 542.421H340.766L343.237 549.509L340.766 556.595H345.14Z" fill="#17282F"/>
<path d="M341.057 553.202C339.021 553.202 337.363 551.544 337.363 549.508C337.363 547.472 339.021 545.829 341.057 545.829L334.11 544.438L332.266 550.049L335.366 554.783L341.057 553.202Z" fill="#17282F"/>
<path d="M337.556 553.202C335.52 553.202 333.861 551.544 333.861 549.508C333.861 547.472 335.52 545.829 337.556 545.829C339.591 545.829 341.235 547.472 341.235 549.508C341.235 551.544 339.591 553.202 337.556 553.202ZM341.642 542.421H333.454L329.367 549.508L333.454 556.595H341.642L345.729 549.508L341.642 542.421Z" fill="#CE2D4F"/>
<path d="M630.175 541.948L627.141 536.685L630.175 531.422H633.424L631.589 536.685L633.424 541.948H630.175Z" fill="#CE2D4F"/>
<path d="M633.211 539.428C634.723 539.428 635.956 538.198 635.956 536.685C635.956 535.174 634.723 533.951 633.211 533.951L638.371 532.92L639.741 537.086L637.438 540.602L633.211 539.428Z" fill="#CE2D4F"/>
<path d="M635.806 539.428C637.317 539.428 638.549 538.198 638.549 536.685C638.549 535.174 637.317 533.951 635.806 533.951C634.293 533.951 633.072 535.174 633.072 536.685C633.072 538.198 634.293 539.428 635.806 539.428ZM632.77 531.422H638.852L641.886 536.685L638.852 541.948H632.77L629.734 536.685L632.77 531.422Z" fill="#17282F"/>
<path d="M517.171 548.936H523.984C525.757 548.936 527.21 547.484 527.21 545.709C527.21 543.936 525.757 542.485 523.984 542.485H517.171C515.396 542.485 513.945 543.936 513.945 545.709C513.945 547.484 515.396 548.936 517.171 548.936Z" fill="#17282F"/>
<path d="M506.279 542.851C507.96 539.282 512.039 537.67 515.388 539.249C518.738 540.829 520.089 545 518.407 548.57C516.725 552.138 512.645 553.75 509.296 552.169C505.947 550.59 504.596 546.419 506.279 542.851Z" fill="#CE2D4F"/>
<path d="M508.164 552.159L510.032 553.041L516.529 539.261L514.661 538.38L508.164 552.159Z" fill="#17282F"/>
</svg>
