<svg width="22" height="23" viewBox="0 0 22 23" fill="none" xmlns="http://www.w3.org/2000/svg">
<path d="M10.9998 21.3541C5.56396 21.3541 1.14563 16.9358 1.14563 11.4999C1.14563 6.06409 5.56396 1.64575 10.9998 1.64575C16.4356 1.64575 20.854 6.06409 20.854 11.4999C20.854 16.9358 16.4356 21.3541 10.9998 21.3541ZM10.9998 3.02075C6.3248 3.02075 2.52063 6.82492 2.52063 11.4999C2.52063 16.1749 6.3248 19.9791 10.9998 19.9791C15.6748 19.9791 19.479 16.1749 19.479 11.4999C19.479 6.82492 15.6748 3.02075 10.9998 3.02075Z" fill="white"/>
<path d="M11.0001 14.2592C10.826 14.2592 10.6518 14.195 10.5143 14.0575L7.27848 10.8217C7.01264 10.5558 7.01264 10.1158 7.27848 9.85001C7.54431 9.58418 7.98431 9.58418 8.25014 9.85001L11.0001 12.6L13.7501 9.85001C14.016 9.58418 14.456 9.58418 14.7218 9.85001C14.9876 10.1158 14.9876 10.5558 14.7218 10.8217L11.486 14.0575C11.3485 14.195 11.1743 14.2592 11.0001 14.2592Z" fill="white"/>
</svg>
