<svg width="14" height="8" viewBox="0 0 14 8" fill="none" xmlns="http://www.w3.org/2000/svg">
<path d="M3.75435 4.49206L3.75435 4.49206C2.48788 3.33335 1.77256 2.67624 1.37142 2.29586C1.17157 2.10634 1.04583 1.9819 0.968129 1.89691C0.929442 1.85459 0.89846 1.81753 0.87537 1.78397C0.853069 1.75156 0.829216 1.70988 0.819287 1.65937L3.75435 4.49206ZM3.75435 4.49206C5.02085 5.65076 5.73908 6.3052 6.15483 6.67219M3.75435 4.49206L6.15483 6.67219M9.59275 3.41688L9.46157 3.27335C9.601 3.14592 9.73322 3.02503 9.85864 2.91035C10.999 1.86766 11.5771 1.33913 11.9004 1.07924C12.0753 0.938657 12.2014 0.854327 12.3184 0.821843C12.4276 0.791496 12.5252 0.81211 12.5813 0.823963L9.59275 3.41688ZM9.59275 3.41688L9.46157 3.27336L6.99362 5.52909M9.59275 3.41688L6.99362 5.52909M6.15483 6.67219C6.36202 6.85508 6.49792 6.97 6.59059 7.04091M6.15483 6.67219L6.59059 7.04091M6.59059 7.04091C6.67293 7.10392 6.75131 7.1576 6.8344 7.17127M6.59059 7.04091L6.8344 7.17127M6.8344 7.17127C6.84122 7.17239 6.84965 7.17418 6.85952 7.17628M6.8344 7.17127L6.85952 7.17628M6.85952 7.17628C6.9148 7.188 7.01504 7.20925 7.12704 7.17618M6.85952 7.17628L7.12704 7.17618M7.12704 7.17618C7.24553 7.14119 7.37699 7.05157 7.56518 6.89858M7.12704 7.17618L7.56518 6.89858M7.56518 6.89858C7.91119 6.61728 8.53563 6.04575 9.77029 4.91573M7.56518 6.89858L9.77029 4.91573M9.77029 4.91573C9.91593 4.78243 10.0701 4.64135 10.2333 4.49206M9.77029 4.91573L10.2333 4.49206M10.2333 4.49206C10.3947 4.34432 10.5474 4.20468 10.6918 4.07264M10.2333 4.49206L10.6918 4.07264M10.6918 4.07264C11.9296 2.94064 12.5557 2.36802 12.8638 2.05091M10.6918 4.07264L12.8638 2.05091M12.8638 2.05091C13.0292 1.88059 13.1314 1.75706 13.1722 1.64128M12.8638 2.05091L13.1722 1.64128M13.1722 1.64128C13.2138 1.52354 13.1844 1.41455 13.1717 1.36753M13.1722 1.64128L13.1717 1.36753M13.1717 1.36753C13.1697 1.36031 13.1682 1.35454 13.1673 1.35044M13.1717 1.36753L13.1673 1.35044M13.1673 1.35044C13.14 1.21712 13.0485 1.098 12.9576 1.01486M13.1673 1.35044C13.1673 1.35044 13.1673 1.35045 13.1673 1.35046L12.9576 1.01486M12.9576 1.01486C12.8652 0.930288 12.7395 0.851844 12.6066 0.829037L12.9576 1.01486ZM6.99362 5.52909L4.5429 3.28835C3.8195 2.62694 3.16291 2.03266 2.68022 1.60127C2.43896 1.38565 2.24064 1.21027 2.09896 1.0874C2.02828 1.02609 1.97076 0.97705 1.92869 0.942375C1.90784 0.925197 1.88934 0.910342 1.87425 0.898917C1.86686 0.893321 1.85847 0.887164 1.85003 0.88153C1.84992 0.881457 1.84976 0.88135 1.84955 0.88121C1.84558 0.878515 1.82398 0.863849 1.7964 0.854475L6.99362 5.52909ZM1.2448 0.869206C0.928155 0.995387 0.753641 1.32539 0.819287 1.65937L1.2448 0.869206ZM1.79632 0.854448C1.62383 0.795848 1.41425 0.801676 1.24481 0.869203L1.79632 0.854448Z" fill="#5E5E5E" stroke="#5E5E5E" stroke-width="0.388889"/>
</svg>
