<svg width="17" height="17" viewBox="0 0 17 17" fill="none" xmlns="http://www.w3.org/2000/svg">
<path fill-rule="evenodd" clip-rule="evenodd" d="M3.3249 0.0800563C2.50423 0.252523 1.86526 0.594265 1.25668 1.18627C0.70808 1.71991 0.326124 2.36953 0.12513 3.11059C0.0282312 3.46791 0.0265618 3.49425 0.0133922 4.88333L0 6.29333L0.0858065 6.41946C0.132994 6.4888 0.213756 6.57675 0.26521 6.61485C0.507568 6.79426 0.897759 6.71435 1.07323 6.44932L1.17325 6.29834L1.1951 4.94146C1.21342 3.80431 1.22748 3.54875 1.28179 3.36333C1.57931 2.34812 2.34868 1.57991 3.36745 1.28072C3.54789 1.22774 3.81333 1.21327 4.93864 1.1951C6.26617 1.17369 6.29537 1.17158 6.42918 1.08837C6.61237 0.974477 6.73564 0.721175 6.70804 0.515433C6.68434 0.338886 6.59534 0.205483 6.42291 0.0881436C6.30119 0.00530492 6.29021 0.00471135 4.97952 0.00727108C3.83321 0.00953402 3.61467 0.0191794 3.3249 0.0800563ZM10.5805 0.0858065C10.3989 0.209378 10.3123 0.343597 10.2907 0.534723C10.2671 0.744435 10.3837 0.971954 10.576 1.09159C10.7031 1.17065 10.7501 1.17395 12.0614 1.1951C13.1958 1.21342 13.4513 1.22748 13.6367 1.28179C14.6519 1.57931 15.4201 2.34868 15.7193 3.36745C15.7723 3.54789 15.7867 3.81333 15.8049 4.93864C15.826 6.24989 15.8294 6.29685 15.9084 6.42395C16.028 6.61634 16.2556 6.7329 16.4653 6.70927C16.6564 6.68771 16.7906 6.60109 16.9142 6.41946L17 6.29333L16.9866 4.88333C16.9734 3.49425 16.9718 3.46791 16.8749 3.11059C16.7622 2.69528 16.5206 2.16219 16.2888 1.81789C16.0693 1.49188 15.5527 0.969914 15.2258 0.743953C14.8575 0.489316 14.3277 0.24399 13.8894 0.12513C13.5321 0.0282312 13.5057 0.0265618 12.1167 0.0133922L10.7067 0L10.5805 0.0858065ZM5.21687 3.21049C4.27756 3.42796 3.57798 4.05895 3.28031 4.95719C3.19591 5.21175 3.18156 5.31993 3.17922 5.71769C3.17681 6.13351 3.18764 6.21535 3.28417 6.5099C3.79385 8.06492 5.61122 8.76825 7.0161 7.95415C7.32253 7.7766 7.77259 7.3259 7.95378 7.01521C8.51755 6.04849 8.37687 4.81448 7.60966 3.9964C7.11311 3.46695 6.53094 3.19769 5.82898 3.17276C5.58006 3.16393 5.3591 3.17755 5.21687 3.21049ZM11.6203 3.21661C10.6797 3.46958 10.0978 4.4435 10.3375 5.3637C10.5857 6.31655 11.5581 6.90433 12.4864 6.66252C13.4365 6.41505 14.027 5.44168 13.7867 4.51918C13.5362 3.55765 12.5523 2.96598 11.6203 3.21661ZM6.33273 4.49214C6.87921 4.76117 7.20237 5.38574 7.09015 5.95604C6.97336 6.54975 6.54975 6.97336 5.95604 7.09015C5.37902 7.20367 4.7615 6.87984 4.48535 6.31889C4.37483 6.09441 4.36367 6.04088 4.36422 5.73702C4.36471 5.44973 4.3794 5.37086 4.46806 5.17977C4.64513 4.79815 5.0194 4.48204 5.41149 4.38299C5.67139 4.31733 6.07471 4.36511 6.33273 4.49214ZM12.407 4.46724C12.7684 4.74288 12.711 5.2802 12.2993 5.47555C11.9036 5.66334 11.428 5.31748 11.4775 4.87799C11.528 4.42981 12.0535 4.19758 12.407 4.46724ZM10.883 8.726C10.5878 8.77085 10.2294 8.90065 9.95797 9.06102C9.68222 9.22396 9.21995 9.68538 9.06102 9.95637C8.48101 10.9454 8.614 12.1758 9.39034 13.0036C9.70489 13.339 10.0785 13.5809 10.4901 13.7158C10.7844 13.8123 10.8669 13.8232 11.2823 13.821C11.681 13.8189 11.7877 13.8047 12.0428 13.72C12.4587 13.5818 12.7787 13.3843 13.0813 13.0791C13.388 12.7697 13.5842 12.4513 13.72 12.0428C13.8047 11.7877 13.8189 11.681 13.821 11.2823C13.8232 10.8669 13.8123 10.7844 13.7158 10.4901C13.4472 9.67046 12.7251 8.98843 11.9067 8.78142C11.6178 8.7083 11.1618 8.68363 10.883 8.726ZM11.5078 9.91026C11.9445 9.99306 12.3159 10.2774 12.5147 10.6811C12.6253 10.9058 12.6363 10.9588 12.6354 11.263C12.6347 11.5495 12.6196 11.6302 12.5308 11.8241C12.3994 12.1108 12.113 12.3962 11.8202 12.532C11.6292 12.6206 11.5502 12.6353 11.263 12.6358C10.9591 12.6363 10.9056 12.6252 10.6811 12.5147C10.1202 12.2385 9.79633 11.621 9.90985 11.044C10.0226 10.4709 10.4112 10.0592 10.967 9.92402C11.205 9.86615 11.2669 9.86456 11.5078 9.91026ZM0.355246 10.3329C0.224662 10.3897 0.0513429 10.5821 0.0207004 10.7041C0.00916303 10.7502 0.00582428 11.4041 0.013318 12.1573C0.0267102 13.5014 0.0287505 13.5334 0.125241 13.8894C0.243916 14.3275 0.489242 14.8574 0.743953 15.2258C0.969914 15.5527 1.49188 16.0693 1.81789 16.2888C2.16219 16.5206 2.69528 16.7622 3.11059 16.8749C3.46791 16.9718 3.49425 16.9734 4.88333 16.9866L6.29333 17L6.41946 16.9142C6.59523 16.7946 6.68423 16.6621 6.70804 16.4846C6.73564 16.2788 6.61237 16.0255 6.42918 15.9116C6.29537 15.8284 6.26617 15.8263 4.93864 15.8049C3.81333 15.7867 3.54789 15.7723 3.36745 15.7193C2.34868 15.4201 1.57931 14.6519 1.28179 13.6367C1.22748 13.4513 1.21342 13.1958 1.1951 12.0614C1.1735 10.7228 1.17224 10.7057 1.08603 10.567C0.932779 10.3206 0.616338 10.2191 0.355246 10.3329ZM4.49763 10.3393C3.55702 10.5923 2.97507 11.5662 3.21476 12.4864C3.46294 13.4393 4.43541 14.027 5.3637 13.7852C6.31377 13.5378 6.90425 12.5644 6.66397 11.6419C6.41353 10.6804 5.42955 10.0887 4.49763 10.3393ZM16.2383 11.0972C16.0856 11.1445 15.8882 11.3485 15.8452 11.5033C15.825 11.5756 15.8084 11.9937 15.8082 12.4323C15.8078 13.0934 15.7953 13.2815 15.7355 13.5309C15.4712 14.6332 14.6332 15.4712 13.5309 15.7355C13.2812 15.7954 13.0939 15.8077 12.4321 15.8079C11.9933 15.8081 11.577 15.8246 11.507 15.8447C11.335 15.894 11.1407 16.0903 11.0947 16.2614C11.024 16.524 11.1822 16.8553 11.4267 16.9566C11.5062 16.9895 11.804 16.9976 12.5312 16.9865C13.4628 16.9724 13.55 16.9651 13.8894 16.8739C14.3036 16.7627 14.8364 16.5215 15.1821 16.2888C15.5081 16.0693 16.0301 15.5527 16.256 15.2258C16.5115 14.8563 16.7565 14.3265 16.8741 13.8894C16.9658 13.5482 16.9725 13.4663 16.9863 12.5065C17.0009 11.4882 17.0008 11.4861 16.9145 11.3585C16.7655 11.1379 16.4724 11.0247 16.2383 11.0972ZM5.28428 11.59C5.64568 11.8656 5.58833 12.4029 5.17662 12.5983C4.7809 12.7861 4.30527 12.4402 4.3548 12.0007C4.40533 11.5525 4.93078 11.3203 5.28428 11.59Z" fill="#CE2D4F"/>
</svg>
