<svg width="18" height="18" viewBox="0 0 18 18" fill="none" xmlns="http://www.w3.org/2000/svg">
<path fill-rule="evenodd" clip-rule="evenodd" d="M4.6082 0.0366742C4.43484 0.0972491 4.2858 0.229093 4.20725 0.391329C4.14523 0.519479 4.13331 0.609392 4.13331 0.949589V1.35511L3.57881 1.37692C2.80829 1.40728 2.41016 1.49972 1.87019 1.77368C0.984008 2.22328 0.349766 3.02905 0.0764046 4.05252L0 4.33858V9.6855V15.0324L0.080063 15.3469C0.166704 15.6872 0.399858 16.2122 0.581547 16.4763C0.740618 16.7075 1.12257 17.1054 1.36304 17.2904C1.81239 17.6362 2.43964 17.8944 3.01239 17.9693C3.2181 17.9962 5.07415 18.0047 9.18121 17.9974L15.0558 17.9869L15.3281 17.9095C15.9546 17.7313 16.4255 17.4773 16.8356 17.0962C17.4481 16.5272 17.8027 15.8863 17.9397 15.1005C18.0202 14.6388 18.0199 4.73042 17.9394 4.26851C17.8144 3.55202 17.4925 2.94251 16.9549 2.40455C16.2162 1.66541 15.4251 1.37055 14.1711 1.36704L13.8492 1.36612L13.8369 0.911809C13.825 0.472764 13.821 0.452432 13.7191 0.308136C13.4116 -0.126934 12.7772 -0.0897873 12.533 0.37761C12.4426 0.550681 12.4351 0.595814 12.4351 0.965595V1.36612H8.98774H5.54039V0.965595C5.54039 0.595814 5.53286 0.550681 5.44245 0.37761C5.28321 0.072801 4.92433 -0.0738521 4.6082 0.0366742ZM4.13331 3.53064C4.13331 4.33915 4.15248 4.45252 4.31967 4.63175C4.67869 5.01662 5.36552 4.86124 5.50366 4.36387C5.52364 4.29194 5.54007 3.90457 5.54018 3.50313L5.54039 2.7732H8.98774H12.4351L12.4353 3.50313C12.4354 3.90457 12.4518 4.29194 12.4718 4.36387C12.61 4.86124 13.2968 5.01662 13.6558 4.63175C13.8232 4.45231 13.8422 4.33953 13.8422 3.52547V2.76286L14.3434 2.7834C14.6243 2.79487 14.9363 2.82857 15.0529 2.86002C15.612 3.01065 16.1153 3.42985 16.3739 3.96029C16.5279 4.27618 16.5846 4.57817 16.5854 5.0861L16.586 5.51701H8.98774H1.38949L1.39009 5.0861C1.39083 4.57817 1.44754 4.27618 1.60158 3.96029C1.90836 3.33104 2.48906 2.9125 3.2003 2.80796C3.29746 2.79368 3.54718 2.77999 3.75515 2.7776L4.13331 2.7732V3.53064ZM16.586 10.8407C16.586 14.645 16.584 14.7652 16.5155 15.033C16.341 15.7152 15.8162 16.2736 15.142 16.4944L14.8799 16.5802H8.98774H3.09558L2.83351 16.4944C2.52195 16.3924 2.11798 16.1316 1.91609 15.9023C1.70658 15.6643 1.5404 15.3473 1.45974 15.032C1.3916 14.7655 1.38949 14.6403 1.38949 10.8407V6.9241H8.98774H16.586V10.8407ZM3.86916 9.06515C3.6308 9.17346 3.43015 9.46497 3.43015 9.70308C3.43015 9.9412 3.6308 10.2327 3.86916 10.341C3.99246 10.397 4.11315 10.4052 4.82918 10.4059C5.73449 10.4067 5.81164 10.3925 6.02551 10.1855C6.09756 10.1157 6.16154 10.0036 6.19507 9.88829C6.2434 9.72201 6.2434 9.68416 6.19507 9.51788C6.16154 9.40257 6.09756 9.29042 6.02551 9.22067C5.81164 9.01369 5.73449 8.99947 4.82918 9.00032C4.11315 9.00099 3.99246 9.00915 3.86916 9.06515ZM7.97401 9.0909C7.56813 9.29313 7.46718 9.80784 7.76653 10.1488C7.97686 10.3883 8.0566 10.4051 8.98774 10.4051C9.90386 10.4051 9.98923 10.3883 10.1972 10.1669C10.5087 9.83521 10.3831 9.26439 9.95511 9.06624C9.8309 9.00873 9.71717 9.00099 8.98584 9.00032C8.16361 8.99954 8.15591 9.00025 7.97401 9.0909ZM12.1889 9.05562C11.6035 9.30917 11.6083 10.1067 12.1965 10.3521C12.3022 10.3961 12.4848 10.4065 13.1463 10.4059C13.8623 10.4052 13.983 10.397 14.1063 10.341C14.3447 10.2327 14.5453 9.9412 14.5453 9.70308C14.5453 9.46497 14.3447 9.17346 14.1063 9.06515C13.9826 9.00894 13.864 9.00116 13.1386 9.00169C12.4785 9.00218 12.2872 9.01305 12.1889 9.05562ZM3.82311 13.2418C3.41724 13.444 3.31628 13.9587 3.61564 14.2997C3.82547 14.5387 3.90669 14.5559 4.82918 14.5567C5.49072 14.5574 5.67332 14.547 5.77896 14.503C6.2568 14.3037 6.37729 13.7038 6.00961 13.3546C5.81118 13.1661 5.72056 13.1504 4.82728 13.1504C4.01405 13.1504 4.0047 13.1513 3.82311 13.2418ZM8.05555 13.1971C7.80481 13.2952 7.64777 13.4857 7.59839 13.7516C7.54664 14.0303 7.73607 14.3629 8.02005 14.4919C8.14367 14.5481 8.26323 14.556 8.98774 14.556C9.92436 14.556 10.0085 14.5378 10.2111 14.2921C10.5029 13.9381 10.3778 13.4128 9.95511 13.2171C9.83034 13.1594 9.72079 13.1522 8.98774 13.1539C8.44274 13.1552 8.12513 13.1699 8.05555 13.1971ZM12.1889 13.2065C11.6035 13.4601 11.6083 14.2576 12.1965 14.503C12.3022 14.547 12.4848 14.5574 13.1463 14.5567C14.0688 14.5559 14.15 14.5387 14.3598 14.2997C14.6605 13.9573 14.5556 13.4427 14.1433 13.2373C13.9726 13.1522 13.9522 13.1505 13.1405 13.1518C12.48 13.1529 12.287 13.164 12.1889 13.2065Z" fill="#CE2D4F"/>
</svg>
