<svg width="19" height="18" viewBox="0 0 19 18" fill="none" xmlns="http://www.w3.org/2000/svg">
<path fill-rule="evenodd" clip-rule="evenodd" d="M1.59496 0.0399197C0.857582 0.179518 0.177555 0.87331 0.0412944 1.62509C-0.0137648 1.92862 -0.0137648 6.16481 0.0412944 6.46835C0.182131 7.24529 0.872134 7.92701 1.65122 8.05899C1.81823 8.08727 2.81264 8.09687 4.80838 8.08945C7.68388 8.0788 7.72311 8.07763 7.82532 8.00131C7.88229 7.95878 7.96368 7.87739 8.00621 7.82041C8.08253 7.71821 8.0837 7.67898 8.09435 4.80348C8.10177 2.80773 8.09217 1.81333 8.06389 1.64631C7.93191 0.867234 7.25019 0.17723 6.47325 0.0363941C6.19402 -0.0142394 1.86448 -0.0110889 1.59496 0.0399197ZM11.4966 0.0399197C10.7492 0.181431 10.0704 0.882311 9.94101 1.64631C9.91273 1.81329 9.90313 2.80672 9.91055 4.79977L9.92136 7.70947L10.0294 7.85113C10.2258 8.10854 10.0792 8.0974 13.2701 8.0974C15.1639 8.0974 16.2287 8.08356 16.3749 8.05704C17.1397 7.91842 17.825 7.2331 17.9636 6.46835C17.9894 6.32605 18.004 5.45302 18.004 4.04672C18.004 2.64042 17.9894 1.76738 17.9636 1.62509C17.8246 0.85827 17.1417 0.175392 16.3749 0.0363941C16.0957 -0.0142394 11.7661 -0.0110889 11.4966 0.0399197ZM6.35391 1.24237C6.55318 1.30189 6.79644 1.54516 6.85596 1.74443C6.89047 1.85988 6.9021 2.52918 6.9021 4.398V6.8972H4.4029C2.53408 6.8972 1.86478 6.88557 1.74933 6.85106C1.55006 6.79154 1.30679 6.54828 1.24727 6.349C1.18126 6.12813 1.18126 1.96531 1.24727 1.74443C1.30342 1.55645 1.54729 1.30268 1.7266 1.2456C1.92216 1.1833 6.14642 1.18037 6.35391 1.24237ZM16.2556 1.24237C16.4548 1.30189 16.6981 1.54516 16.7576 1.74443C16.7919 1.85901 16.8035 2.45859 16.8029 4.06982C16.8021 6.17152 16.7997 6.2462 16.7259 6.40894C16.6229 6.63585 16.5555 6.70479 16.3349 6.80838L16.1474 6.89645L13.6251 6.89682L11.1028 6.8972V4.398C11.1028 2.52918 11.1144 1.85988 11.1489 1.74443C11.2051 1.55645 11.4489 1.30268 11.6283 1.2456C11.8238 1.1833 16.0481 1.18037 16.2556 1.24237ZM1.59496 9.94125C0.856306 10.0824 0.177555 10.7751 0.0412944 11.5267C-0.0137648 11.8303 -0.0137648 16.0665 0.0412944 16.37C0.180293 17.1368 0.86317 17.8197 1.62999 17.9587C1.93352 18.0138 6.16971 18.0138 6.47325 17.9587C7.24007 17.8197 7.92294 17.1368 8.06194 16.37C8.08846 16.2238 8.1023 15.159 8.1023 13.2652C8.1023 10.0743 8.11344 10.2209 7.85603 10.0245L7.71433 9.91645L4.74841 9.91094C2.99394 9.90768 1.7059 9.92006 1.59496 9.94125ZM10.2589 9.95066C10.121 10.0119 9.99584 10.144 9.94262 10.2846C9.887 10.4314 9.8873 16.0631 9.94296 16.37C10.082 17.1368 10.7648 17.8197 11.5317 17.9587C11.8352 18.0138 16.0714 18.0138 16.3749 17.9587C17.1417 17.8197 17.8246 17.1368 17.9636 16.37C18.0187 16.0665 18.0187 11.8303 17.9636 11.5267C17.8246 10.7599 17.1417 10.0771 16.3749 9.93806C16.0217 9.874 10.4053 9.88559 10.2589 9.95066ZM6.90127 13.6202C6.90048 16.0751 6.89842 16.147 6.8242 16.3106C6.72128 16.5375 6.65381 16.6065 6.43327 16.71L6.24574 16.7981L4.07472 16.7985C2.46465 16.7987 1.86384 16.7869 1.74933 16.7527C1.55006 16.6932 1.30679 16.4499 1.24727 16.2507C1.18126 16.0298 1.18126 11.867 1.24727 11.6461C1.30342 11.4581 1.54729 11.2043 1.7266 11.1473C1.81673 11.1185 2.64341 11.1044 4.3798 11.1017L6.9021 11.0979L6.90127 13.6202ZM16.2556 11.144C16.4548 11.2036 16.6981 11.4468 16.7576 11.6461C16.7919 11.7607 16.8035 12.3603 16.8029 13.9715C16.8021 16.0732 16.7997 16.1479 16.7259 16.3106C16.6229 16.5375 16.5555 16.6065 16.3349 16.71L16.1474 16.7981L13.9764 16.7985C12.3663 16.7987 11.7655 16.7869 11.651 16.7527C11.4517 16.6932 11.2085 16.4499 11.1489 16.2507C11.1144 16.1352 11.1028 15.4659 11.1028 13.5971V11.0979H13.602C15.4708 11.0979 16.1401 11.1095 16.2556 11.144Z" fill="#CE2D4F"/>
</svg>
