<svg width="18" height="18" viewBox="0 0 18 18" fill="none" xmlns="http://www.w3.org/2000/svg">
<path d="M8.99609 17.0625C4.54859 17.0625 0.933594 13.4475 0.933594 9C0.933594 4.5525 4.54859 0.9375 8.99609 0.9375C13.4436 0.9375 17.0586 4.5525 17.0586 9C17.0586 13.4475 13.4436 17.0625 8.99609 17.0625ZM8.99609 2.0625C5.17109 2.0625 2.05859 5.175 2.05859 9C2.05859 12.825 5.17109 15.9375 8.99609 15.9375C12.8211 15.9375 15.9336 12.825 15.9336 9C15.9336 5.175 12.8211 2.0625 8.99609 2.0625Z" fill="#CE2D4F"/>
<path d="M11.7869 11.9475C11.6894 11.9475 11.5919 11.925 11.5019 11.865L9.17687 10.4775C8.59937 10.1325 8.17188 9.37501 8.17188 8.70751V5.63251C8.17188 5.32501 8.42687 5.07001 8.73437 5.07001C9.04187 5.07001 9.29687 5.32501 9.29687 5.63251V8.70751C9.29687 8.97751 9.52187 9.37501 9.75437 9.51001L12.0794 10.8975C12.3494 11.055 12.4319 11.4 12.2744 11.67C12.1619 11.85 11.9744 11.9475 11.7869 11.9475Z" fill="#CE2D4F"/>
</svg>
