<svg width="20" height="20" viewBox="0 0 20 20" fill="none" xmlns="http://www.w3.org/2000/svg">
<path d="M10.0003 18.9583C5.05866 18.9583 1.04199 14.9417 1.04199 10C1.04199 5.05834 5.05866 1.04167 10.0003 1.04167C14.942 1.04167 18.9587 5.05834 18.9587 10C18.9587 14.9417 14.942 18.9583 10.0003 18.9583ZM10.0003 2.29167C5.75033 2.29167 2.29199 5.75001 2.29199 10C2.29199 14.25 5.75033 17.7083 10.0003 17.7083C14.2503 17.7083 17.7087 14.25 17.7087 10C17.7087 5.75001 14.2503 2.29167 10.0003 2.29167Z" fill="#6C6C6C"/>
<path d="M13.0919 13.275C12.9835 13.275 12.8752 13.25 12.7752 13.1833L10.1919 11.6417C9.55019 11.2583 9.0752 10.4167 9.0752 9.675V6.25833C9.0752 5.91666 9.35853 5.63333 9.7002 5.63333C10.0419 5.63333 10.3252 5.91666 10.3252 6.25833V9.675C10.3252 9.975 10.5752 10.4167 10.8335 10.5667L13.4169 12.1083C13.7169 12.2833 13.8085 12.6667 13.6335 12.9667C13.5085 13.1667 13.3002 13.275 13.0919 13.275Z" fill="#6C6C6C"/>
</svg>
