<svg width="18" height="18" viewBox="0 0 18 18" fill="none" xmlns="http://www.w3.org/2000/svg">
<path fill-rule="evenodd" clip-rule="evenodd" d="M8.06802 0.0523799C6.30587 0.270121 4.673 1.0648 3.4266 2.3112C2.09997 3.63783 1.28088 5.4109 1.13046 7.2816L1.10547 7.59265L0.898057 7.7207C0.481396 7.97787 0.155287 8.44106 0.0537651 8.91988C-0.0184686 9.2608 -0.0177158 11.4233 0.0548047 11.7655C0.200957 12.4552 0.790406 13.0524 1.46291 13.192C2.10459 13.3252 2.65737 13.0892 2.93637 12.5628L3.03137 12.3836V10.3403V8.29692L2.93598 8.11624C2.83507 7.92503 2.59066 7.67646 2.41353 7.58487C2.35513 7.55465 2.2316 7.51088 2.13908 7.48758L1.97084 7.44521L1.99217 7.27959C2.13782 6.14797 2.30333 5.57458 2.73061 4.72151C3.7294 2.72729 5.63906 1.32531 7.87293 0.946214C8.33472 0.86785 9.2291 0.841143 9.6991 0.891689C11.8565 1.12363 13.7182 2.25653 14.8875 4.04893C15.4494 4.91043 15.8298 5.92095 15.9535 6.88092C16.0358 7.52045 16.0483 7.44044 15.8593 7.48801C15.7677 7.51109 15.645 7.55465 15.5866 7.58487C15.4095 7.67646 15.1651 7.92503 15.0641 8.11624L14.9688 8.29692V10.3403V12.3836L15.0641 12.5643C15.1651 12.7555 15.4095 13.004 15.5866 13.0956C15.645 13.1259 15.7678 13.1694 15.8595 13.1925L16.0263 13.2345V13.7784C16.0263 14.3786 15.9822 14.6222 15.819 14.9247C15.679 15.184 15.3635 15.4919 15.103 15.6234C14.7399 15.8067 14.517 15.8418 13.7141 15.8423L12.9971 15.8427L12.8931 15.6437C12.7651 15.3987 12.4884 15.1505 12.2264 15.0458C12.041 14.9716 11.9736 14.9669 11.0972 14.9669C10.1996 14.9669 10.1572 14.9701 9.95004 15.0523C9.65063 15.1711 9.328 15.4956 9.21759 15.7892C9.10191 16.0966 9.12281 16.5652 9.26455 16.8409C9.39489 17.0943 9.61891 17.3127 9.88027 17.4411L10.0934 17.5457H11.0972H12.1009L12.3052 17.4454C12.5416 17.3293 12.7919 17.0898 12.9105 16.8663L12.9932 16.7104L13.8555 16.6941C14.823 16.6757 14.9589 16.652 15.4348 16.4184C15.9546 16.1632 16.3691 15.7496 16.6217 15.2341C16.8387 14.7914 16.8604 14.6737 16.8777 13.8473L16.8937 13.0885L17.0977 12.9625C17.523 12.7001 17.8434 12.2462 17.9464 11.7606C18.0179 11.4232 18.0179 9.25736 17.9464 8.91988C17.845 8.44189 17.5188 7.97787 17.104 7.72184L16.8984 7.59498L16.8557 7.15727C16.6934 5.49608 16.0864 4.06083 14.995 2.75801C13.9124 1.46558 12.2731 0.496537 10.6014 0.160641C9.77406 -0.00558626 8.85502 -0.0448398 8.06802 0.0523799ZM5.97051 4.1929C5.25549 4.28929 4.67701 4.78998 4.45945 5.50077C4.39869 5.69919 4.3936 5.88105 4.3936 7.84882C4.3936 9.95786 4.39449 9.98464 4.47386 10.237C4.68647 10.913 5.2623 11.4045 5.96403 11.5089L6.23977 11.5499V12.0588C6.23977 12.6587 6.29006 12.8756 6.47708 13.0827C6.73727 13.3707 7.15827 13.4627 7.49445 13.3051C7.60411 13.2537 7.93122 12.9595 8.51612 12.3862L9.37647 11.5429L10.6132 11.5418C11.2934 11.5411 11.9548 11.5243 12.083 11.5043C12.3637 11.4605 12.7565 11.274 12.9856 11.0757C13.2144 10.8777 13.4299 10.5434 13.5263 10.237C13.6056 9.98464 13.6065 9.95786 13.6065 7.84882C13.6065 5.88105 13.6014 5.69919 13.5407 5.50077C13.3583 4.90502 12.9211 4.45204 12.3393 4.2561L12.1009 4.17583L9.14346 4.16985C7.51685 4.16655 6.08903 4.17691 5.97051 4.1929ZM12.1547 5.10974C12.3951 5.22152 12.5339 5.35527 12.6458 5.58308L12.7462 5.78756V7.84882C12.7462 9.86495 12.7445 9.91363 12.6712 10.0714C12.5633 10.3034 12.4225 10.4554 12.2128 10.5661L12.0292 10.6629L10.52 10.6808L9.01082 10.6987L8.08723 11.6039C7.57923 12.1017 7.1493 12.5091 7.13184 12.5091C7.11439 12.5091 7.10012 12.1695 7.10012 11.7545C7.10012 10.7132 7.09209 10.701 6.38316 10.6735C6.05458 10.6607 5.94097 10.642 5.82336 10.5812C5.58877 10.4601 5.46215 10.3341 5.35436 10.1146L5.25395 9.91008V7.86674C5.25395 6.28025 5.26438 5.79397 5.30059 5.69181C5.41369 5.3728 5.70269 5.12036 6.02995 5.05475C6.11577 5.03755 7.49266 5.026 9.08968 5.02912C11.9545 5.03468 11.9955 5.03575 12.1547 5.10974ZM6.73415 7.31067C6.47593 7.38853 6.27719 7.65377 6.27719 7.92051C6.27719 8.20916 6.50938 8.48659 6.80136 8.54678C7.03889 8.59571 7.35948 8.43368 7.47781 8.20482C7.54532 8.0743 7.54532 7.76673 7.47781 7.6362C7.40519 7.49579 7.23089 7.35677 7.07212 7.31268C6.91934 7.27023 6.86929 7.26994 6.73415 7.31067ZM8.79189 7.32365C8.61556 7.38756 8.44187 7.57627 8.39047 7.75984C8.26511 8.20762 8.71152 8.66357 9.14743 8.53298C9.4933 8.42934 9.70021 8.0833 9.60966 7.75984C9.53664 7.49905 9.25885 7.2807 9.00006 7.2807C8.95077 7.2807 8.8571 7.30002 8.79189 7.32365ZM10.8876 7.3259C10.7294 7.38419 10.5929 7.50127 10.5202 7.6409C10.4545 7.76712 10.4557 8.07595 10.5223 8.20482C10.6406 8.43368 10.9612 8.59571 11.1988 8.54678C11.4832 8.48813 11.7255 8.19801 11.7237 7.91815C11.721 7.49686 11.2772 7.18244 10.8876 7.3259ZM2.07864 8.40765L2.18894 8.50046V10.3386V12.1766L2.09445 12.2712C1.8918 12.4738 1.40835 12.3515 1.12092 12.025C0.875688 11.7464 0.862568 11.6609 0.862568 10.3403C0.862568 9.02323 0.876154 8.93354 1.11745 8.65945C1.41054 8.32646 1.84645 8.21224 2.07864 8.40765ZM16.5876 8.41611C16.7935 8.52118 17.0194 8.7904 17.084 9.00771C17.1267 9.15153 17.1376 9.42219 17.1376 10.3403C17.1376 11.6609 17.1244 11.7464 16.8792 12.025C16.5918 12.3515 16.1083 12.4738 15.9057 12.2712L15.8112 12.1766V10.3403V8.50387L15.9098 8.40521C16.0007 8.3142 16.0251 8.30789 16.2245 8.32384C16.3434 8.33338 16.5067 8.37489 16.5876 8.41611ZM12.0687 15.9648C12.1681 16.0642 12.1905 16.1141 12.1905 16.2355C12.1905 16.425 12.1106 16.5796 11.9766 16.6489C11.8265 16.7265 10.3718 16.7286 10.2224 16.6513C10.0766 16.5759 10.0038 16.4433 10.0038 16.2528C10.0038 16.1117 10.0221 16.0684 10.1257 15.9648L10.2476 15.8429H11.0972H11.9468L12.0687 15.9648Z" fill="#CE2D4F"/>
</svg>
