<svg width="20" height="15" viewBox="0 0 20 15" fill="none" xmlns="http://www.w3.org/2000/svg">
<path d="M18.3337 2.94961V11.2829C18.3337 11.8355 18.1142 12.3654 17.7235 12.7561C17.3328 13.1468 16.8029 13.3663 16.2503 13.3663H3.75033C3.19779 13.3663 2.66789 13.1468 2.27719 12.7561C1.88649 12.3654 1.66699 11.8355 1.66699 11.2829V2.94961" stroke="#575757" stroke-width="1.4" stroke-linecap="round" stroke-linejoin="round"/>
<path d="M18.3337 2.94961C18.3337 2.39707 18.1142 1.86717 17.7235 1.47647C17.3328 1.08577 16.8029 0.866272 16.2503 0.866272H3.75033C3.19779 0.866272 2.66789 1.08577 2.27719 1.47647C1.88649 1.86717 1.66699 2.39707 1.66699 2.94961L8.89616 7.46349C9.22727 7.67044 9.60987 7.78017 10.0003 7.78017C10.3908 7.78017 10.7734 7.67044 11.1045 7.46349L18.3337 2.94961Z" stroke="#575757" stroke-width="1.4" stroke-linecap="round" stroke-linejoin="round"/>
</svg>
