<svg width="20" height="15" viewBox="0 0 20 15" fill="none" xmlns="http://www.w3.org/2000/svg">
<path d="M18.3327 2.94961V11.2829C18.3327 11.8355 18.1132 12.3654 17.7225 12.7561C17.3318 13.1468 16.8019 13.3663 16.2493 13.3663H3.74935C3.19681 13.3663 2.66691 13.1468 2.27621 12.7561C1.88551 12.3654 1.66602 11.8355 1.66602 11.2829V2.94961" stroke="#CE2D4F" stroke-width="1.4" stroke-linecap="round" stroke-linejoin="round"/>
<path d="M18.3327 2.94961C18.3327 2.39707 18.1132 1.86717 17.7225 1.47647C17.3318 1.08577 16.8019 0.866272 16.2493 0.866272H3.74935C3.19681 0.866272 2.66691 1.08577 2.27621 1.47647C1.88551 1.86717 1.66602 2.39707 1.66602 2.94961L8.89518 7.46349C9.22629 7.67044 9.60889 7.78017 9.99935 7.78017C10.3898 7.78017 10.7724 7.67044 11.1035 7.46349L18.3327 2.94961Z" stroke="#CE2D4F" stroke-width="1.4" stroke-linecap="round" stroke-linejoin="round"/>
</svg>
