<svg width="18" height="16" viewBox="0 0 18 16" fill="none" xmlns="http://www.w3.org/2000/svg">
<path fill-rule="evenodd" clip-rule="evenodd" d="M2.08925 0.0844175C1.31569 0.187392 0.604266 0.696423 0.265475 1.38934C-0.0226912 1.97876 -0.00626177 1.57893 0.00482019 7.73526L0.0146356 13.1883L0.110468 13.4697C0.325423 14.1009 0.767822 14.6282 1.3018 14.8897C1.89428 15.1798 1.40646 15.1562 7.0458 15.1676L12.0716 15.1779L12.2877 15.3311C14.1155 16.6279 16.6563 15.9713 17.6411 13.9477C18.199 12.8015 18.1008 11.4087 17.3861 10.3285C16.8797 9.56308 15.9032 8.94935 14.9411 8.79174L14.8102 8.77028L14.8004 5.38553L14.7906 2.00079L14.6981 1.74784C14.3987 0.929672 13.8453 0.392953 13.0486 0.148024L12.7853 0.0671085L7.54333 0.0616555C4.66026 0.0586299 2.20591 0.0689027 2.08925 0.0844175ZM12.7922 1.05101C13.3023 1.20246 13.7127 1.62066 13.8433 2.12181C13.8847 2.2809 13.8935 2.79742 13.8935 5.07665V7.83866L12.583 6.53222C11.3117 5.26486 11.2676 5.22507 11.11 5.20192C10.9937 5.18483 10.9188 5.19334 10.8462 5.23183C10.7904 5.26142 9.87424 6.15729 8.81019 7.2226L6.8756 9.15959L5.52078 7.80875C4.26546 6.55712 4.15524 6.45619 4.01965 6.43438C3.91893 6.4182 3.84213 6.42717 3.77339 6.46312C3.7184 6.49186 3.05208 7.14011 2.29259 7.90364L0.911746 9.29194V5.80327C0.911746 2.02506 0.907384 2.11745 1.10295 1.7681C1.27555 1.45988 1.65181 1.16419 2.01994 1.04746C2.13083 1.01231 3.26837 1.00236 7.38741 1.00049C11.9401 0.99845 12.6372 1.00496 12.7922 1.05101ZM6.54532 4.02495C6.17233 4.10179 5.83016 4.37257 5.66752 4.71956C5.5871 4.89114 5.5732 4.96748 5.5732 5.23742C5.5732 5.5125 5.58605 5.58022 5.67104 5.75331C5.88329 6.18547 6.24952 6.42291 6.73801 6.44504C7.17854 6.46502 7.50203 6.31508 7.77144 5.96602C7.99773 5.67282 8.07446 5.24587 7.96627 4.8816C7.78903 4.28476 7.15106 3.90016 6.54532 4.02495ZM13.2523 8.91744C12.8907 9.03118 12.6671 9.14327 12.24 9.42485C11.1311 10.1558 10.5091 11.627 10.7438 12.9638C10.806 13.3185 11.0074 13.9292 11.1325 14.1426L11.2232 14.2973L6.77987 14.2859C3.64097 14.2778 2.2819 14.2628 2.15032 14.2346C1.55869 14.1078 1.1147 13.6889 0.965679 13.1167C0.922512 12.951 0.911852 12.681 0.912204 11.7649L0.912626 10.6201L2.41038 9.09852C3.23417 8.26163 3.92667 7.57695 3.94929 7.57695C3.97191 7.57695 4.58403 8.17087 5.30952 8.89679C6.71693 10.305 6.7372 10.3213 6.9969 10.2507C7.09558 10.2238 7.52317 9.81473 9.07355 8.26371L11.0259 6.31051L12.2846 7.56819L13.5433 8.82586L13.2523 8.91744ZM14.7497 9.70651C15.4143 9.77867 16.1397 10.2177 16.5498 10.796C17.3366 11.9054 17.1984 13.3765 16.2174 14.3317C15.7148 14.8211 15.0872 15.0691 14.3508 15.0693C13.5898 15.0695 12.9273 14.7817 12.3755 14.211C11.8962 13.7153 11.6881 13.2222 11.6541 12.5023C11.6154 11.6805 11.8563 11.0632 12.4511 10.4593C12.898 10.0055 13.4073 9.7578 14.0342 9.68934C14.2939 9.66095 14.3406 9.66208 14.7497 9.70651ZM14.1749 10.4303C14.0681 10.4722 12.9592 11.5667 12.8884 11.7001C12.7258 12.0068 12.9349 12.3615 13.2784 12.3615C13.4426 12.3615 13.5223 12.3188 13.7264 12.1213L13.8935 11.9596V12.9744C13.8935 13.9304 13.8976 13.9958 13.9644 14.1039C14.1021 14.3268 14.4044 14.389 14.6126 14.2373C14.7978 14.1024 14.8082 14.0341 14.8082 12.9555V11.9593L14.9979 12.1468C15.1607 12.3075 15.2115 12.3368 15.355 12.353C15.7291 12.3952 15.9658 12.0685 15.8148 11.7184C15.7533 11.5756 14.6489 10.4797 14.5156 10.429C14.3964 10.3837 14.2929 10.3841 14.1749 10.4303Z" fill="#CE2D4F"/>
</svg>
