<svg width="18" height="18" viewBox="0 0 18 18" fill="none" xmlns="http://www.w3.org/2000/svg">
<path fill-rule="evenodd" clip-rule="evenodd" d="M0.784431 0.047929C0.582147 0.111744 0.339983 0.288185 0.209469 0.466825C-0.0199532 0.7809 -0.0053811 0.167436 0.00461519 9.07987L0.0137315 17.1841L0.100882 17.3615C0.212003 17.5876 0.42291 17.8002 0.647299 17.9122L0.82329 18H9.00687H17.1904L17.3664 17.9122C17.4632 17.8639 17.6062 17.7601 17.6841 17.6816C17.762 17.6031 17.8649 17.459 17.9128 17.3615L18 17.1841V13.0338V8.88353L17.9162 8.69659C17.809 8.45764 17.5145 8.18167 17.2877 8.1076C17.1955 8.07748 15.6708 7.7639 13.8994 7.41074C12.1281 7.05754 10.6437 6.75999 10.6008 6.74946L10.5228 6.73034L10.5128 4.43625L10.5028 2.14213L10.3877 1.90652C10.1579 1.43629 9.93765 1.32487 8.93647 1.17245C8.53961 1.11204 6.65017 0.822971 4.73771 0.530109C2.82529 0.237246 1.18594 -0.0013071 1.0947 5.39001e-06C1.0035 0.00131788 0.863873 0.0228853 0.784431 0.047929ZM5.3074 1.38273C7.61911 1.73483 9.53892 2.03826 9.57366 2.05699C9.6084 2.07572 9.66141 2.12641 9.69143 2.16962C9.74036 2.24003 9.74603 3.02994 9.74603 9.76052V17.2728H8.61969H7.49334V15.4678C7.49334 13.343 7.50292 13.4121 7.16051 13.069C6.82134 12.7291 6.83736 12.7319 5.24985 12.7321C4.00682 12.7323 3.89025 12.7375 3.72556 12.8006C3.45288 12.905 3.25527 13.0887 3.12173 13.3621L3.00558 13.5998L2.9953 15.4363L2.98502 17.2728H2.03266C0.967497 17.2728 0.892489 17.2589 0.790802 17.043C0.740785 16.9367 0.735294 16.1451 0.735294 9.01648C0.735294 3.22635 0.745959 1.07706 0.775103 0.992814C0.811181 0.888489 0.982315 0.743015 1.0694 0.742696C1.08858 0.742625 2.99569 1.03063 5.3074 1.38273ZM2.42086 3.70452C2.22587 3.81133 2.20137 4.12824 2.37539 4.29301L2.46567 4.3785H3.37516H4.28464L4.37493 4.29301C4.55208 4.1253 4.52374 3.80785 4.32231 3.70285C4.1801 3.62875 2.55659 3.63017 2.42086 3.70452ZM6.11791 3.755C5.95047 3.92374 5.987 4.21593 6.19066 4.33718C6.2757 4.38779 6.40882 4.39624 7.12214 4.39624C8.05842 4.39624 8.12776 4.38134 8.21941 4.16027C8.28368 4.00522 8.23652 3.82942 8.10203 3.72282C8.01695 3.65539 7.96085 3.65131 7.1163 3.65131H6.22079L6.11791 3.755ZM2.42086 5.97477C2.22587 6.08158 2.20137 6.39849 2.37539 6.56326L2.46567 6.64875H3.37516H4.28464L4.37493 6.56326C4.55208 6.39555 4.52374 6.0781 4.32231 5.9731C4.1801 5.899 2.55659 5.90042 2.42086 5.97477ZM6.11791 6.02525C5.95047 6.19399 5.987 6.48618 6.19066 6.60743C6.2757 6.65804 6.40882 6.66649 7.12214 6.66649C8.05842 6.66649 8.12776 6.65159 8.21941 6.43052C8.28368 6.27547 8.23652 6.09967 8.10203 5.99307C8.01695 5.92564 7.96085 5.92156 7.1163 5.92156H6.22079L6.11791 6.02525ZM13.7895 8.15872C15.5632 8.51121 17.0514 8.82372 17.0966 8.8532C17.2843 8.97569 17.2784 8.84054 17.2784 13.0362C17.2784 17.347 17.2918 17.1014 17.0504 17.2169C16.9465 17.2665 16.5741 17.2728 13.7269 17.2728H10.5204V12.3953C10.5204 9.7127 10.5303 7.51783 10.5425 7.51783C10.5546 7.51783 12.0158 7.80622 13.7895 8.15872ZM2.42086 8.24502C2.22587 8.35183 2.20137 8.66874 2.37539 8.83351L2.46567 8.919H3.37516H4.28464L4.37493 8.83351C4.55208 8.6658 4.52374 8.34835 4.32231 8.24335C4.1801 8.16925 2.55659 8.17067 2.42086 8.24502ZM6.11791 8.2955C5.95047 8.46424 5.987 8.75643 6.19066 8.87768C6.2757 8.92829 6.40882 8.93674 7.12214 8.93674C8.05842 8.93674 8.12776 8.92184 8.21941 8.70077C8.28368 8.54572 8.23652 8.36992 8.10203 8.26332C8.01695 8.19589 7.96085 8.19181 7.1163 8.19181H6.22079L6.11791 8.2955ZM2.42086 10.5153C2.22587 10.6221 2.20137 10.939 2.37539 11.1038L2.46567 11.1892H3.37516H4.28464L4.37493 11.1038C4.55208 10.936 4.52374 10.6186 4.32231 10.5136C4.1801 10.4395 2.55659 10.4409 2.42086 10.5153ZM6.11791 10.5657C5.95047 10.7345 5.987 11.0267 6.19066 11.1479C6.2757 11.1985 6.40882 11.207 7.12214 11.207C8.05842 11.207 8.12776 11.1921 8.21941 10.971C8.28368 10.816 8.23652 10.6402 8.10203 10.5336C8.01695 10.4661 7.96085 10.4621 7.1163 10.4621H6.22079L6.11791 10.5657ZM12.876 10.5657C12.7085 10.7345 12.7451 11.0267 12.9487 11.1479C13.0337 11.1985 13.1669 11.207 13.8802 11.207C14.8165 11.207 14.8858 11.1921 14.9775 10.971C15.0417 10.816 14.9946 10.6402 14.8601 10.5336C14.775 10.4661 14.7189 10.4621 13.8744 10.4621H12.9788L12.876 10.5657ZM12.876 12.836C12.7085 13.0047 12.7451 13.2969 12.9487 13.4182C13.0337 13.4688 13.1669 13.4772 13.8802 13.4772C14.8165 13.4772 14.8858 13.4623 14.9775 13.2413C15.0417 13.0862 14.9946 12.9104 14.8601 12.8038C14.775 12.7364 14.7189 12.7323 13.8744 12.7323H12.9788L12.876 12.836ZM6.63901 13.5933L6.73658 13.6916L6.74633 15.4822L6.75605 17.2728H5.25921H3.76234V15.5186C3.76234 14.3421 3.7748 13.7368 3.80021 13.6806C3.82105 13.6345 3.88043 13.57 3.9322 13.5373C4.01647 13.4839 4.15782 13.4786 5.28388 13.4863L6.54148 13.495L6.63901 13.5933ZM12.876 15.1062C12.7085 15.275 12.7451 15.5672 12.9487 15.6884C13.0337 15.739 13.1669 15.7475 13.8802 15.7475C14.8165 15.7475 14.8858 15.7326 14.9775 15.5115C15.0417 15.3565 14.9946 15.1807 14.8601 15.0741C14.775 15.0066 14.7189 15.0026 13.8744 15.0026H12.9788L12.876 15.1062Z" fill="#CE2D4F"/>
</svg>
