<svg width="20" height="20" viewBox="0 0 20 20" fill="none" xmlns="http://www.w3.org/2000/svg">
<path d="M10.0004 11.8083C8.22539 11.8083 6.77539 10.3667 6.77539 8.58334C6.77539 6.8 8.22539 5.36667 10.0004 5.36667C11.7754 5.36667 13.2254 6.80834 13.2254 8.59167C13.2254 10.375 11.7754 11.8083 10.0004 11.8083ZM10.0004 6.61667C8.91706 6.61667 8.02539 7.5 8.02539 8.59167C8.02539 9.68334 8.90872 10.5667 10.0004 10.5667C11.0921 10.5667 11.9754 9.68334 11.9754 8.59167C11.9754 7.5 11.0837 6.61667 10.0004 6.61667Z" fill="#CE2D4F"/>
<path d="M10.0014 18.9667C8.76803 18.9667 7.52637 18.5 6.5597 17.575C4.10137 15.2083 1.3847 11.4333 2.4097 6.94167C3.3347 2.86667 6.89303 1.04167 10.0014 1.04167C10.0014 1.04167 10.0014 1.04167 10.0097 1.04167C13.118 1.04167 16.6764 2.86667 17.6014 6.95001C18.618 11.4417 15.9014 15.2083 13.443 17.575C12.4764 18.5 11.2347 18.9667 10.0014 18.9667ZM10.0014 2.29167C7.57637 2.29167 4.4597 3.58334 3.6347 7.21667C2.7347 11.1417 5.20137 14.525 7.4347 16.6667C8.87637 18.0583 11.1347 18.0583 12.5764 16.6667C14.8014 14.525 17.268 11.1417 16.3847 7.21667C15.5514 3.58334 12.4264 2.29167 10.0014 2.29167Z" fill="#CE2D4F"/>
</svg>
