<svg width="20" height="26" viewBox="0 0 20 26" fill="none" xmlns="http://www.w3.org/2000/svg">
<path d="M16.8608 14.6558C16.8608 20.0346 11.3516 23.3484 10.2067 23.9795C10.1433 24.0145 10.072 24.0329 9.99961 24.0329C9.92718 24.0329 9.85593 24.0145 9.79251 23.9795C8.64676 23.3484 3.13928 20.0346 3.13928 14.6558C3.13928 10.3678 5.71207 7.36621 10 7.36621C14.288 7.36621 16.8608 10.3678 16.8608 14.6558Z" stroke="#170F49" stroke-width="1.4" stroke-linecap="round" stroke-linejoin="round"/>
<path d="M6.5697 14.2268C6.5697 15.1366 6.93112 16.0091 7.57444 16.6524C8.21776 17.2957 9.09029 17.6571 10.0001 17.6571C10.9099 17.6571 11.7824 17.2957 12.4257 16.6524C13.069 16.0091 13.4305 15.1366 13.4305 14.2268C13.4305 13.317 13.069 12.4444 12.4257 11.8011C11.7824 11.1578 10.9099 10.7964 10.0001 10.7964C9.09029 10.7964 8.21776 11.1578 7.57444 11.8011C6.93112 12.4444 6.5697 13.317 6.5697 14.2268V14.2268Z" stroke="#170F49" stroke-width="1.4" stroke-linecap="round" stroke-linejoin="round"/>
</svg>
