<svg width="16" height="19" viewBox="0 0 16 19" fill="none" xmlns="http://www.w3.org/2000/svg">
<path d="M14.8612 8.65593C14.8612 14.0348 9.35198 17.3485 8.20709 17.9797C8.14367 18.0147 8.07241 18.033 7.99998 18.033C7.92755 18.033 7.8563 18.0147 7.79287 17.9797C6.64712 17.3485 1.13965 14.0348 1.13965 8.65593C1.13965 4.36795 3.71243 1.36637 8.00041 1.36637C12.2884 1.36637 14.8612 4.36795 14.8612 8.65593Z" stroke="#575757" stroke-width="1.4" stroke-linecap="round" stroke-linejoin="round"/>
<path d="M4.57031 8.22713C4.57031 9.13693 4.93173 10.0095 5.57505 10.6528C6.21837 11.2961 7.0909 11.6575 8.00069 11.6575C8.91049 11.6575 9.78302 11.2961 10.4263 10.6528C11.0697 10.0095 11.4311 9.13693 11.4311 8.22713C11.4311 7.31734 11.0697 6.44481 10.4263 5.80149C9.78302 5.15817 8.91049 4.79675 8.00069 4.79675C7.0909 4.79675 6.21837 5.15817 5.57505 5.80149C4.93173 6.44481 4.57031 7.31734 4.57031 8.22713V8.22713Z" stroke="#575757" stroke-width="1.4" stroke-linecap="round" stroke-linejoin="round"/>
</svg>
