<svg width="203" height="64" viewBox="0 0 203 64" fill="none" xmlns="http://www.w3.org/2000/svg">
<g clip-path="url(#clip0_398_4269)">
<path fill-rule="evenodd" clip-rule="evenodd" d="M18.6582 17.5074C15.6857 17.5074 13.276 19.9077 13.276 22.8686C13.276 25.8296 15.6857 28.2299 18.6582 28.2299C21.6309 28.2299 24.0405 25.8296 24.0405 22.8686C24.0405 19.9077 21.6309 17.5074 18.6582 17.5074ZM8.1347 27.9373C13.7373 27.9373 18.2791 32.4614 18.2791 38.0421V46.3243H13.2333V38.0421C13.2333 37.4477 13.1308 36.8774 12.9425 36.3473L5.53079 43.7301L1.96282 40.1759L9.11037 33.0564C8.79456 32.9955 8.46836 32.9635 8.1347 32.9635H-0.179688V27.9373H8.1347ZM29.3074 27.9373C23.7048 27.9373 19.1628 32.4614 19.1628 38.0421V46.3243H24.2087V38.0421C24.2087 37.5767 24.2716 37.1257 24.3893 36.6975L32.1425 44.4204L35.7106 40.8662L27.9574 33.1434C28.3873 33.0261 28.8401 32.9635 29.3074 32.9635H37.6216V27.9373H29.3074Z" fill="#CE2D4F"/>
<path d="M45.6934 46.6138V17.7239H53.9074L62.7141 42.4806H63.3492V17.7239H68.0489V46.6138H60.0045L50.9858 21.8149H50.3931V46.6138H45.6934Z" fill="white"/>
<path d="M86.8783 42.818L88.0638 42.6917L88.1485 46.1078C84.9306 46.7545 82.0797 47.0779 79.5958 47.0779C76.4626 47.0779 74.2045 46.2201 72.8215 44.5051C71.4666 42.7899 70.7891 40.0486 70.7891 36.281C70.7891 28.8019 73.8516 25.0624 79.9769 25.0624C85.9045 25.0624 88.8684 28.2817 88.8684 34.7205L88.5721 38.01H75.4464C75.4747 39.7534 75.8558 41.0327 76.5898 41.848C77.3235 42.6635 78.6926 43.071 80.6968 43.071C82.7007 43.071 84.7614 42.9869 86.8783 42.818ZM84.3379 34.4675C84.3379 32.3868 83.9992 30.9388 83.3217 30.1234C82.6728 29.2799 81.5576 28.8581 79.9769 28.8581C78.3962 28.8581 77.239 29.2939 76.505 30.1656C75.7993 31.0372 75.4323 32.4711 75.4044 34.4675H84.3379Z" fill="white"/>
<path d="M102.579 29.4486H96.7357V38.727C96.7357 40.4423 96.8628 41.5809 97.1168 42.1432C97.3708 42.7054 98.02 42.9869 99.0645 42.9869L102.536 42.8602L102.748 46.5293C100.857 46.8949 99.4174 47.0779 98.4294 47.0779C96.0303 47.0779 94.3789 46.5293 93.4757 45.433C92.6004 44.3362 92.1631 42.2698 92.1631 39.2333V29.4486H89.4531V25.5263H92.1631V19.4109H96.7357V25.5263H102.579V29.4486Z" fill="white"/>
<path d="M102.596 25.5263H107.126L110.471 42.6917H111.318L115.34 25.9481H120.082L124.105 42.6917H124.951L128.254 25.5263H132.827L128.338 46.6138H121.014L117.711 32.1478L114.409 46.6138H107.084L102.596 25.5263Z" fill="white"/>
<path d="M135.773 27.8038C137.24 25.9762 139.668 25.0624 143.055 25.0624C146.442 25.0624 148.856 25.9762 150.295 27.8038C151.763 29.6313 152.497 32.3727 152.497 36.028C152.497 39.683 151.791 42.4384 150.38 44.294C148.969 46.15 146.527 47.0779 143.055 47.0779C139.583 47.0779 137.141 46.15 135.73 44.294C134.319 42.4384 133.613 39.683 133.613 36.028C133.613 32.3727 134.333 29.6313 135.773 27.8038ZM139.244 41.5105C139.894 42.6354 141.164 43.1977 143.055 43.1977C144.946 43.1977 146.217 42.6354 146.866 41.5105C147.515 40.386 147.84 38.5444 147.84 35.9858C147.84 33.4271 147.487 31.6136 146.781 30.5451C146.103 29.4767 144.862 28.9425 143.055 28.9425C141.248 28.9425 139.992 29.4767 139.287 30.5451C138.609 31.6136 138.271 33.4271 138.271 35.9858C138.271 38.5444 138.595 40.386 139.244 41.5105Z" fill="white"/>
<path d="M154.963 46.6138V25.5263H159.536V28.0568C161.935 26.5104 164.334 25.5123 166.734 25.0624V29.6595C164.306 30.1374 162.231 30.756 160.51 31.5152L159.578 31.8947V46.6138H154.963Z" fill="white"/>
<path d="M172.759 46.6138H168.145V16.7539H172.759V34.0034L175.385 33.7505L180.381 25.5263H185.546L179.449 35.3954L185.885 46.6138H180.677L175.512 37.7148L172.759 38.01V46.6138Z" fill="white"/>
</g>
<defs>
<clipPath id="clip0_398_4269">
<rect width="203" height="64" fill="white"/>
</clipPath>
</defs>
</svg>
