<svg width="220" height="64" viewBox="0 0 220 64" fill="none" xmlns="http://www.w3.org/2000/svg">
<path fill-rule="evenodd" clip-rule="evenodd" d="M35.6575 17.5073C32.6849 17.5073 30.2752 19.9077 30.2752 22.8686C30.2752 25.8295 32.6849 28.2298 35.6575 28.2298C38.6302 28.2298 41.0398 25.8295 41.0398 22.8686C41.0398 19.9077 38.6302 17.5073 35.6575 17.5073ZM25.134 27.9373C30.7366 27.9373 35.2784 32.4614 35.2784 38.0421V46.3242H30.2325V38.0421C30.2325 37.4477 30.1301 36.8774 29.9417 36.3473L22.5301 43.7301L18.9621 40.1759L26.1096 33.0564C25.7938 32.9954 25.4676 32.9635 25.134 32.9635H16.8196V27.9373H25.134ZM46.3066 27.9373C40.704 27.9373 36.1621 32.4614 36.1621 38.0421V46.3242H41.208V38.0421C41.208 37.5767 41.2709 37.1257 41.3886 36.6974L49.1418 44.4203L52.7099 40.8662L44.9567 33.1434C45.3866 33.0261 45.8394 32.9635 46.3066 32.9635H54.6209V27.9373H46.3066Z" fill="#CE2D4F"/>
<path d="M62.6943 46.614V17.7241H70.9083L79.7151 42.4808H80.3502V17.7241H85.0499V46.614H77.0054L67.9868 21.8151H67.3941V46.614H62.6943Z" fill="#0C284F"/>
<path d="M103.878 42.8181L105.063 42.6918L105.148 46.1079C101.93 46.7546 99.0793 47.078 96.5954 47.078C93.4623 47.078 91.2041 46.2202 89.8212 44.5052C88.4662 42.79 87.7887 40.0487 87.7887 36.2811C87.7887 28.802 90.8512 25.0625 96.9766 25.0625C102.904 25.0625 105.868 28.2818 105.868 34.7206L105.572 38.0101H92.446C92.4743 39.7535 92.8554 41.0328 93.5894 41.8481C94.3231 42.6636 95.6922 43.0711 97.6964 43.0711C99.7003 43.0711 101.761 42.987 103.878 42.8181ZM101.338 34.4676C101.338 32.3869 100.999 30.9389 100.321 30.1235C99.6724 29.28 98.5573 28.8582 96.9766 28.8582C95.3959 28.8582 94.2387 29.294 93.5047 30.1656C92.7989 31.0373 92.4319 32.4712 92.404 34.4676H101.338Z" fill="#0C284F"/>
<path d="M119.578 29.4488H113.735V38.7272C113.735 40.4425 113.862 41.5811 114.116 42.1434C114.37 42.7056 115.02 42.9871 116.064 42.9871L119.536 42.8604L119.748 46.5295C117.856 46.8951 116.417 47.0781 115.429 47.0781C113.03 47.0781 111.379 46.5295 110.475 45.4332C109.6 44.3365 109.163 42.27 109.163 39.2335V29.4488H106.453V25.5265H109.163V19.4111H113.735V25.5265H119.578V29.4488Z" fill="#0C284F"/>
<path d="M119.595 25.5264H124.126L127.47 42.6917H128.317L132.34 25.9481H137.082L141.104 42.6917H141.951L145.253 25.5264H149.826L145.338 46.6138H138.013L134.711 32.1478L131.408 46.6138H124.083L119.595 25.5264Z" fill="#0C284F"/>
<path d="M152.772 27.8039C154.24 25.9763 156.667 25.0625 160.055 25.0625C163.442 25.0625 165.855 25.9763 167.295 27.8039C168.763 29.6314 169.497 32.3728 169.497 36.0281C169.497 39.6831 168.791 42.4385 167.379 44.2941C165.968 46.1501 163.527 47.078 160.055 47.078C156.583 47.078 154.141 46.1501 152.73 44.2941C151.318 42.4385 150.613 39.6831 150.613 36.0281C150.613 32.3728 151.332 29.6314 152.772 27.8039ZM156.244 41.5106C156.893 42.6355 158.164 43.1978 160.055 43.1978C161.946 43.1978 163.216 42.6355 163.865 41.5106C164.515 40.3861 164.839 38.5445 164.839 35.9859C164.839 33.4272 164.486 31.6137 163.781 30.5452C163.103 29.4768 161.861 28.9426 160.055 28.9426C158.248 28.9426 156.992 29.4768 156.286 30.5452C155.609 31.6137 155.27 33.4272 155.27 35.9859C155.27 38.5445 155.595 40.3861 156.244 41.5106Z" fill="#0C284F"/>
<path d="M171.964 46.6139V25.5264H176.537V28.0569C178.936 26.5105 181.335 25.5123 183.734 25.0625V29.6596C181.307 30.1375 179.232 30.7561 177.51 31.5153L176.579 31.8948V46.6139H171.964Z" fill="#0C284F"/>
<path d="M189.76 46.6138H185.146V16.7539H189.76V34.0034L192.386 33.7504L197.382 25.5263H202.547L196.45 35.3953L202.886 46.6138H197.678L192.513 37.7147L189.76 38.0099V46.6138Z" fill="#0C284F"/>
</svg>
