<svg width="20" height="19" viewBox="0 0 20 19" fill="none" xmlns="http://www.w3.org/2000/svg">
<path d="M12.2509 17.3852L12.26 17.3915C13.0471 17.8927 13.9815 18.1103 14.909 18.0084C15.8365 17.9066 16.7014 17.4913 17.361 16.8314L17.9339 16.2584C18.0609 16.1315 18.1616 15.9809 18.2303 15.815C18.299 15.6492 18.3344 15.4715 18.3344 15.292C18.3344 15.1125 18.299 14.9347 18.2303 14.7689C18.1616 14.6031 18.0609 14.4524 17.9339 14.3255L15.5173 11.9108C15.3905 11.7838 15.2398 11.6831 15.074 11.6144C14.9081 11.5457 14.7304 11.5103 14.5509 11.5103C14.3714 11.5103 14.1937 11.5457 14.0278 11.6144C13.862 11.6831 13.7113 11.7838 13.5845 11.9108C13.3282 12.1669 12.9808 12.3108 12.6185 12.3108C12.2562 12.3108 11.9087 12.1669 11.6525 11.9108L7.78853 8.04592C7.53238 7.7897 7.38849 7.44223 7.38849 7.07993C7.38849 6.71763 7.53238 6.37017 7.78853 6.11394C7.91549 5.98706 8.01621 5.8364 8.08493 5.67057C8.15365 5.50474 8.18902 5.327 8.18902 5.1475C8.18902 4.968 8.15365 4.79026 8.08493 4.62443C8.01621 4.4586 7.91549 4.30794 7.78853 4.18105L5.37287 1.76631C5.11665 1.51017 4.76918 1.36627 4.40688 1.36627C4.04458 1.36627 3.69712 1.51017 3.44089 1.76631L2.86704 2.33926C2.20719 2.9989 1.79213 3.86391 1.69044 4.79137C1.58875 5.71884 1.80652 6.65324 2.30776 7.44018L2.31323 7.44929C4.96041 11.3659 8.33385 14.7387 12.2509 17.3852V17.3852Z" stroke="#CE2D4F" stroke-width="1.4" stroke-linecap="round" stroke-linejoin="round"/>
</svg>
