<svg width="20" height="19" viewBox="0 0 20 19" fill="none" xmlns="http://www.w3.org/2000/svg">
<path d="M12.2519 17.3852L12.261 17.3915C13.0481 17.8927 13.9825 18.1103 14.91 18.0084C15.8374 17.9066 16.7024 17.4913 17.3619 16.8314L17.9349 16.2584C18.0618 16.1315 18.1626 15.9809 18.2313 15.815C18.3 15.6492 18.3354 15.4715 18.3354 15.292C18.3354 15.1125 18.3 14.9347 18.2313 14.7689C18.1626 14.6031 18.0618 14.4524 17.9349 14.3255L15.5183 11.9108C15.3914 11.7838 15.2408 11.6831 15.0749 11.6144C14.9091 11.5457 14.7314 11.5103 14.5519 11.5103C14.3724 11.5103 14.1946 11.5457 14.0288 11.6144C13.863 11.6831 13.7123 11.7838 13.5854 11.9108C13.3292 12.1669 12.9817 12.3108 12.6194 12.3108C12.2571 12.3108 11.9097 12.1669 11.6535 11.9108L7.7895 8.04592C7.53336 7.7897 7.38946 7.44223 7.38946 7.07993C7.38946 6.71763 7.53336 6.37017 7.7895 6.11394C7.91647 5.98706 8.01719 5.8364 8.08591 5.67057C8.15463 5.50474 8.19 5.327 8.19 5.1475C8.19 4.968 8.15463 4.79026 8.08591 4.62443C8.01719 4.4586 7.91647 4.30794 7.7895 4.18105L5.37385 1.76631C5.11763 1.51017 4.77016 1.36627 4.40786 1.36627C4.04556 1.36627 3.69809 1.51017 3.44187 1.76631L2.86802 2.33926C2.20817 2.9989 1.79311 3.86391 1.69142 4.79137C1.58973 5.71884 1.80749 6.65324 2.30874 7.44018L2.3142 7.44929C4.96139 11.3659 8.33483 14.7387 12.2519 17.3852V17.3852Z" stroke="#575757" stroke-width="1.4" stroke-linecap="round" stroke-linejoin="round"/>
</svg>
