<svg width="15" height="16" viewBox="0 0 15 16" fill="none" xmlns="http://www.w3.org/2000/svg">
<path d="M7.53489 7.305C7.47293 7.2988 7.39857 7.2988 7.33041 7.305C5.85568 7.25543 4.68457 6.04714 4.68457 4.56002C4.68457 3.04191 5.91145 1.80884 7.43575 1.80884C8.95386 1.80884 10.1869 3.04191 10.1869 4.56002C10.1807 6.04714 9.00962 7.25543 7.53489 7.305Z" stroke="#292D32" stroke-width="0.929452" stroke-linecap="round" stroke-linejoin="round"/>
<path d="M4.43665 9.59142C2.93713 10.5952 2.93713 12.2311 4.43665 13.2287C6.14065 14.3688 8.9352 14.3688 10.6392 13.2287C12.1387 12.2249 12.1387 10.589 10.6392 9.59142C8.9414 8.45748 6.14684 8.45748 4.43665 9.59142Z" stroke="#292D32" stroke-width="0.929452" stroke-linecap="round" stroke-linejoin="round"/>
</svg>
