<svg width="24" height="24" viewBox="0 0 24 24" fill="none" xmlns="http://www.w3.org/2000/svg">
<path fill-rule="evenodd" clip-rule="evenodd" d="M1.40234 12C1.40234 9.18955 2.51879 6.49422 4.50607 4.50693C6.49336 2.51964 9.1887 1.4032 11.9991 1.4032C14.8096 1.4032 17.5049 2.51964 19.4922 4.50693C21.4795 6.49422 22.5959 9.18955 22.5959 12C22.5959 14.8104 21.4795 17.5058 19.4922 19.4931C17.5049 21.4804 14.8096 22.5968 11.9991 22.5968C9.1887 22.5968 6.49336 21.4804 4.50607 19.4931C2.51879 17.5058 1.40234 14.8104 1.40234 12ZM11.9991 2.9232C9.59183 2.9232 7.28311 3.8795 5.58088 5.58173C3.87865 7.28396 2.92234 9.59268 2.92234 12C2.92234 14.4073 3.87865 16.716 5.58088 18.4183C7.28311 20.1205 9.59183 21.0768 11.9991 21.0768C14.4065 21.0768 16.7152 20.1205 18.4174 18.4183C20.1196 16.716 21.0759 14.4073 21.0759 12C21.0759 9.59268 20.1196 7.28396 18.4174 5.58173C16.7152 3.8795 14.4065 2.9232 11.9991 2.9232ZM15.7655 8.2352C15.9155 8.38522 15.9998 8.58867 15.9998 8.8008C15.9998 9.01293 15.9155 9.21638 15.7655 9.3664L13.1303 12L15.7655 14.6336C15.9158 14.7838 16.0002 14.9876 16.0002 15.2C16.0002 15.4124 15.9158 15.6162 15.7655 15.7664C15.6153 15.9166 15.4116 16.001 15.1991 16.001C14.9867 16.001 14.783 15.9166 14.6327 15.7664L11.9991 13.1312L9.36554 15.7664C9.29116 15.8408 9.20286 15.8998 9.10568 15.94C9.0085 15.9803 8.90434 16.001 8.79914 16.001C8.69395 16.001 8.58979 15.9803 8.49261 15.94C8.39543 15.8998 8.30713 15.8408 8.23274 15.7664C8.15836 15.692 8.09936 15.6037 8.05911 15.5065C8.01885 15.4094 7.99813 15.3052 7.99813 15.2C7.99813 15.0948 8.01885 14.9906 8.05911 14.8935C8.09936 14.7963 8.15836 14.708 8.23274 14.6336L10.8679 12L8.23274 9.3664C8.08253 9.21618 7.99813 9.01244 7.99813 8.8C7.99813 8.58756 8.08253 8.38382 8.23274 8.2336C8.38296 8.08338 8.5867 7.99899 8.79914 7.99899C9.01159 7.99899 9.21533 8.08338 9.36554 8.2336L11.9991 10.8688L14.6327 8.2336C14.7071 8.1591 14.7953 8.09999 14.8925 8.05966C14.9897 8.01933 15.0939 7.99857 15.1991 7.99857C15.3044 7.99857 15.4086 8.01933 15.5058 8.05966C15.603 8.09999 15.6912 8.1591 15.7655 8.2336V8.2352Z" fill="#1D1D1D"/>
</svg>
