<svg width="6" height="10" viewBox="0 0 6 10" fill="none" xmlns="http://www.w3.org/2000/svg">
<path d="M3.37586 7.20751L3.37586 7.20752C2.60356 8.05164 2.16502 8.52904 1.91094 8.79698C1.78457 8.93024 1.70021 9.01557 1.64167 9.06908C1.61258 9.09568 1.58535 9.11862 1.55938 9.13648C1.53457 9.15356 1.49826 9.175 1.45208 9.18407C1.19955 9.23371 0.948536 9.10155 0.852595 8.8608L3.37586 7.20751ZM3.37586 7.20751C4.14816 6.36337 4.58492 5.88404 4.83005 5.60634M3.37586 7.20751L4.83005 5.60634M2.61125 3.2715L2.46773 3.40268C2.38224 3.30915 2.30116 3.22047 2.22425 3.13636C1.53082 2.37797 1.17695 1.99094 1.00231 1.77368C0.908962 1.65756 0.844421 1.56409 0.818778 1.47177C0.793588 1.38109 0.812267 1.29657 0.819774 1.26261C0.820841 1.25778 0.821682 1.25397 0.82214 1.25132L2.61125 3.2715ZM2.61125 3.2715L2.46773 3.40268L3.93157 5.00425M2.61125 3.2715L3.93157 5.00425M4.83005 5.60634C4.95201 5.46817 5.02996 5.37608 5.07875 5.31233M4.83005 5.60634L5.07875 5.31233M5.07875 5.31233C5.11963 5.2589 5.16602 5.19455 5.17814 5.12092M5.07875 5.31233L5.17814 5.12092M5.17814 5.12092C5.1785 5.11872 5.17927 5.1153 5.18027 5.1108M5.17814 5.12092L5.18027 5.1108M5.18027 5.1108C5.18751 5.07849 5.20723 4.99049 5.17962 4.89695M5.18027 5.1108L5.17962 4.89695M5.17962 4.89695C5.15214 4.80389 5.08404 4.70701 4.98268 4.58233M5.17962 4.89695L4.98268 4.58233M4.98268 4.58233C4.79386 4.35008 4.4114 3.9322 3.65948 3.11067M4.98268 4.58233L3.65948 3.11067M3.65948 3.11067C3.57024 3.01317 3.4758 2.90998 3.37586 2.80075M3.65948 3.11067L3.37586 2.80075M3.37586 2.80075C3.27695 2.69264 3.18346 2.59041 3.09506 2.49375M3.37586 2.80075L3.09506 2.49375M3.09506 2.49375C2.34185 1.67016 1.95865 1.25115 1.74577 1.04433M3.09506 2.49375L1.74577 1.04433M1.74577 1.04433C1.63356 0.935314 1.54166 0.856696 1.44907 0.824043M1.74577 1.04433L1.44907 0.824043M1.44907 0.824043C1.34579 0.78762 1.24522 0.817657 1.22427 0.823913M1.44907 0.824043L1.22427 0.823913M1.22427 0.823913C1.22238 0.824479 1.22113 0.82485 1.2206 0.82496M1.22427 0.823913L1.2206 0.82496M1.2206 0.82496C1.11287 0.847049 1.02208 0.918914 0.962087 0.984488M1.2206 0.82496L0.962087 0.984488M0.962087 0.984488C0.900653 1.05164 0.840154 1.14636 0.822144 1.25129L0.962087 0.984488ZM3.93157 5.00425L2.47773 6.59433C2.03668 7.07672 1.64032 7.51464 1.35252 7.83666C1.2087 7.99758 1.09153 8.13008 1.0093 8.22489C0.968317 8.27215 0.935204 8.31098 0.911568 8.33965C0.899909 8.3538 0.889351 8.36693 0.880938 8.37804C0.876849 8.38344 0.871877 8.39019 0.867098 8.39735C0.867072 8.39739 0.86702 8.39747 0.866944 8.39758C0.865206 8.40011 0.850879 8.42096 0.841616 8.44821L3.93157 5.00425ZM0.841589 8.44829C0.797531 8.57799 0.801905 8.7336 0.852591 8.86079L0.841589 8.44829Z" fill="#5E5E5E" stroke="#5E5E5E" stroke-width="0.388889"/>
</svg>
