<svg width="14" height="24" viewBox="0 0 14 24" fill="none" xmlns="http://www.w3.org/2000/svg">
<path fill-rule="evenodd" clip-rule="evenodd" d="M1.09967 22.4192C1.2811 22.8366 1.75506 23.0696 2.24373 22.9815C2.45148 22.9441 3.06028 22.3555 7.6972 17.7097C12.3341 13.0638 12.9215 12.4539 12.9588 12.2457C13.0652 11.653 13.3705 11.9973 7.6972 6.313C2.02549 0.63033 2.36466 0.932348 1.77901 1.04246C1.47202 1.10014 1.09892 1.47396 1.04135 1.78154C0.931893 2.36589 0.673929 2.07168 5.83376 7.24662L10.5851 12.0117L5.8637 16.7452C3.21939 19.3964 1.11364 21.5561 1.07715 21.6546C0.989898 21.89 0.99863 22.1868 1.09967 22.4192Z" fill="#282828" stroke="#282828" stroke-width="0.388889" stroke-linejoin="bevel"/>
</svg>
