<svg width="18" height="19" viewBox="0 0 18 19" fill="none" xmlns="http://www.w3.org/2000/svg">
<g clip-path="url(#clip0_457_4610)">
<path d="M9 8C8.40666 8 7.82664 8.17595 7.33329 8.50559C6.83994 8.83524 6.45543 9.30377 6.22836 9.85195C6.0013 10.4001 5.94189 11.0033 6.05765 11.5853C6.1734 12.1672 6.45912 12.7018 6.87868 13.1213C7.29824 13.5409 7.83279 13.8266 8.41473 13.9424C8.99667 14.0581 9.59987 13.9987 10.1481 13.7716C10.6962 13.5446 11.1648 13.1601 11.4944 12.6667C11.8241 12.1734 12 11.5933 12 11C12 10.2044 11.6839 9.44129 11.1213 8.87868C10.5587 8.31607 9.79565 8 9 8ZM9 12.5C8.70333 12.5 8.41332 12.412 8.16665 12.2472C7.91997 12.0824 7.72771 11.8481 7.61418 11.574C7.50065 11.2999 7.47095 10.9983 7.52882 10.7074C7.5867 10.4164 7.72956 10.1491 7.93934 9.93934C8.14912 9.72956 8.41639 9.5867 8.70737 9.52882C8.99834 9.47094 9.29994 9.50065 9.57403 9.61418C9.84812 9.72771 10.0824 9.91997 10.2472 10.1666C10.412 10.4133 10.5 10.7033 10.5 11C10.5 11.3978 10.342 11.7794 10.0607 12.0607C9.77936 12.342 9.39783 12.5 9 12.5Z" fill="#0E638B"/>
<path d="M16.902 3.59133L14.9085 1.59783C14.5611 1.24859 14.148 0.971716 13.6929 0.783243C13.2378 0.59477 12.7498 0.498441 12.2573 0.499832H3.75C2.7558 0.501023 1.80267 0.896493 1.09967 1.5995C0.396662 2.3025 0.00119089 3.25564 0 4.24983L0 14.7498C0.00119089 15.744 0.396662 16.6972 1.09967 17.4002C1.80267 18.1032 2.7558 18.4986 3.75 18.4998H14.25C15.2442 18.4986 16.1973 18.1032 16.9003 17.4002C17.6033 16.6972 17.9988 15.744 18 14.7498V6.24258C18.0014 5.75001 17.9051 5.26206 17.7166 4.80697C17.5281 4.35188 17.2512 3.93869 16.902 3.59133ZM12.75 2.05983V2.74983C12.75 3.34657 12.5129 3.91887 12.091 4.34082C11.669 4.76278 11.0967 4.99983 10.5 4.99983H7.5C6.90326 4.99983 6.33097 4.76278 5.90901 4.34082C5.48705 3.91887 5.25 3.34657 5.25 2.74983V1.99983H12.2573C12.4232 2.0013 12.5885 2.02143 12.75 2.05983ZM16.5 14.7498C16.5 15.3466 16.2629 15.9189 15.841 16.3408C15.419 16.7628 14.8467 16.9998 14.25 16.9998H3.75C3.15326 16.9998 2.58097 16.7628 2.15901 16.3408C1.73705 15.9189 1.5 15.3466 1.5 14.7498V4.24983C1.5 3.6531 1.73705 3.0808 2.15901 2.65884C2.58097 2.23688 3.15326 1.99983 3.75 1.99983V2.74983C3.75119 3.74403 4.14666 4.69716 4.84967 5.40017C5.55267 6.10317 6.5058 6.49864 7.5 6.49983H10.5C11.4431 6.49691 12.3504 6.13808 13.0403 5.4951C13.7303 4.85213 14.1522 3.9724 14.2215 3.03183L15.8415 4.65183C16.2618 5.07474 16.4984 5.64633 16.5 6.24258V14.7498Z" fill="#0E638B"/>
</g>
<defs>
<clipPath id="clip0_457_4610">
<rect width="18" height="18" fill="white" transform="translate(0 0.5)"/>
</clipPath>
</defs>
</svg>
