<svg width="17" height="17" viewBox="0 0 17 17" fill="none" xmlns="http://www.w3.org/2000/svg">
<path d="M16.1213 14.8788L13.1463 11.9125C14.1061 10.6897 14.6269 9.17958 14.625 7.625C14.625 6.24053 14.2145 4.88716 13.4453 3.73601C12.6761 2.58487 11.5829 1.68766 10.3038 1.15785C9.0247 0.628033 7.61724 0.48941 6.25937 0.759506C4.9015 1.0296 3.65422 1.69629 2.67526 2.67526C1.69629 3.65422 1.0296 4.9015 0.759506 6.25937C0.48941 7.61724 0.628033 9.0247 1.15785 10.3038C1.68766 11.5829 2.58487 12.6761 3.73601 13.4453C4.88716 14.2145 6.24053 14.625 7.625 14.625C9.17958 14.6269 10.6897 14.1061 11.9125 13.1463L14.8788 16.1213C14.9601 16.2033 15.0569 16.2684 15.1635 16.3128C15.2701 16.3572 15.3845 16.3801 15.5 16.3801C15.6155 16.3801 15.7299 16.3572 15.8365 16.3128C15.9431 16.2684 16.0399 16.2033 16.1213 16.1213C16.2033 16.0399 16.2684 15.9431 16.3128 15.8365C16.3572 15.7299 16.3801 15.6155 16.3801 15.5C16.3801 15.3845 16.3572 15.2701 16.3128 15.1635C16.2684 15.0569 16.2033 14.9601 16.1213 14.8788ZM2.375 7.625C2.375 6.58665 2.68291 5.57162 3.25979 4.70826C3.83667 3.8449 4.6566 3.172 5.61592 2.77464C6.57523 2.37728 7.63083 2.27331 8.64923 2.47588C9.66763 2.67845 10.6031 3.17847 11.3373 3.91269C12.0715 4.64692 12.5716 5.58238 12.7741 6.60078C12.9767 7.61918 12.8727 8.67478 12.4754 9.63409C12.078 10.5934 11.4051 11.4133 10.5417 11.9902C9.67839 12.5671 8.66335 12.875 7.625 12.875C6.23262 12.875 4.89726 12.3219 3.91269 11.3373C2.92813 10.3527 2.375 9.01739 2.375 7.625Z" fill="black" fill-opacity="0.4"/>
</svg>
