<svg width="44" height="44" viewBox="0 0 44 44" fill="none" xmlns="http://www.w3.org/2000/svg">
<circle opacity="0.1" cx="22" cy="22" r="22" fill="#CE2D4F"/>
<path d="M30.2482 31.1667H13.7482C13.3724 31.1667 13.0607 30.855 13.0607 30.4792C13.0607 30.1033 13.3724 29.7917 13.7482 29.7917H30.2482C30.624 29.7917 30.9357 30.1033 30.9357 30.4792C30.9357 30.855 30.624 31.1667 30.2482 31.1667Z" fill="#CE2D4F"/>
<path d="M28.434 14.19C26.6557 12.4117 24.914 12.3659 23.0899 14.19L21.9807 15.2992C21.889 15.3909 21.8524 15.5375 21.889 15.6659C22.5857 18.095 24.529 20.0384 26.9582 20.735C26.9949 20.7442 27.0315 20.7534 27.0682 20.7534C27.169 20.7534 27.2607 20.7167 27.334 20.6434L28.434 19.5342C29.3415 18.6359 29.7815 17.765 29.7815 16.885C29.7907 15.9775 29.3507 15.0975 28.434 14.19Z" fill="#CE2D4F"/>
<path d="M25.3089 21.5692C25.0431 21.4408 24.7864 21.3125 24.5389 21.1658C24.3373 21.0467 24.1448 20.9183 23.9523 20.7808C23.7964 20.68 23.6131 20.5333 23.4389 20.3867C23.4206 20.3775 23.3564 20.3225 23.2831 20.2492C22.9806 19.9925 22.6414 19.6625 22.3389 19.2958C22.3114 19.2775 22.2656 19.2133 22.2014 19.1308C22.1098 19.0208 21.9539 18.8375 21.8164 18.6267C21.7064 18.4892 21.5781 18.2875 21.4589 18.0858C21.3123 17.8383 21.1839 17.5908 21.0556 17.3342V17.3342C20.8873 16.9736 20.4141 16.8665 20.1328 17.1478L14.9781 22.3025C14.8589 22.4217 14.7489 22.6508 14.7214 22.8067L14.2264 26.3175C14.1348 26.9408 14.3089 27.5275 14.6939 27.9217C15.0239 28.2425 15.4823 28.4167 15.9773 28.4167C16.0873 28.4167 16.1973 28.4075 16.3073 28.3892L19.8273 27.8942C19.9923 27.8667 20.2214 27.7567 20.3314 27.6375L25.4946 22.4743C25.7703 22.1986 25.6667 21.7242 25.3089 21.5692V21.5692Z" fill="#CE2D4F"/>
</svg>
