<svg width="19" height="18" viewBox="0 0 19 18" fill="none" xmlns="http://www.w3.org/2000/svg">
<path fill-rule="evenodd" clip-rule="evenodd" d="M1.17286 0.0662856C0.646974 0.234485 0.212384 0.679755 0.0569 1.20975C0.00728662 1.37895 0 1.71749 0 3.85865C0 6.16773 0.00403622 6.3265 0.0676871 6.53103C0.241637 7.08999 0.748344 7.5578 1.31009 7.6781C1.42189 7.70203 2.35969 7.7115 3.98264 7.70507L6.48296 7.69514L6.69098 7.6112C7.13918 7.43039 7.51462 7.04448 7.68657 6.58785C7.76697 6.37443 7.76733 6.36379 7.77876 3.99824C7.78669 2.35675 7.77787 1.55122 7.75022 1.39077C7.63949 0.748407 7.15147 0.215661 6.51868 0.0463545C6.37741 0.00856409 5.82127 -0.0011157 3.85763 9.8735e-05C1.56212 0.00145605 1.35992 0.00645668 1.17286 0.0662856ZM13.3945 0.0656427C12.6117 0.239522 12.0196 0.550204 11.4894 1.06527C10.8548 1.68188 10.4926 2.36407 10.3423 3.22618C10.0201 5.07395 11.1345 6.91986 12.9302 7.51286C13.4276 7.6771 13.8034 7.72775 14.3379 7.70249C15.3243 7.65588 16.1318 7.29755 16.8463 6.5895C17.3801 6.06043 17.6892 5.53994 17.88 4.84856C17.9944 4.43387 18.0359 3.68267 17.9678 3.25758C17.7266 1.752 16.6233 0.525879 15.1448 0.120185C14.6747 -0.00883096 13.8461 -0.0346199 13.3945 0.0656427ZM6.25039 1.33698C6.47613 1.45375 6.4651 1.32419 6.4651 3.85537C6.4651 5.92931 6.45924 6.16955 6.40684 6.24435C6.27893 6.42701 6.27722 6.42712 3.87309 6.42712C1.85613 6.42712 1.62363 6.42123 1.51012 6.3674C1.28116 6.25874 1.28588 6.31153 1.28588 3.85537C1.28588 1.39856 1.28263 1.43524 1.5078 1.33745C1.68735 1.2594 6.09959 1.25901 6.25039 1.33698ZM14.7697 1.37363C15.4873 1.55822 16.101 2.059 16.4322 2.73023C16.6281 3.12742 16.6937 3.40724 16.6958 3.85537C16.6981 4.32218 16.6497 4.52552 16.4256 4.99169C16.2746 5.30587 16.2055 5.4031 15.9556 5.65281C15.7188 5.88955 15.5977 5.9781 15.3234 6.11519C14.8859 6.33386 14.6111 6.40165 14.1625 6.4018C13.7251 6.4019 13.4024 6.32868 13.0195 6.14241C12.3556 5.81951 11.8384 5.17561 11.664 4.45498C11.5892 4.1463 11.5882 3.57937 11.6619 3.26129C11.9775 1.89687 13.4134 1.02473 14.7697 1.37363ZM1.21444 10.352C0.666477 10.5288 0.303431 10.8802 0.102906 11.4277L0.0178594 11.6599V14.1424C0.0178594 16.475 0.0218956 16.6367 0.0847606 16.8213C0.271284 17.369 0.670977 17.7636 1.20669 17.9291C1.42632 17.9969 1.5433 18 3.90849 18C6.56754 18 6.53943 18.0018 6.90997 17.813C7.10896 17.7116 7.44854 17.3773 7.57013 17.1631C7.79076 16.7742 7.78669 16.8309 7.78669 14.1391C7.78669 11.83 7.78266 11.6712 7.719 11.4667C7.54777 10.9165 7.04946 10.45 6.49682 10.3226C6.39895 10.3001 5.41429 10.2869 3.87549 10.2875C1.61445 10.2885 1.39468 10.2938 1.21444 10.352ZM11.43 10.352C10.8928 10.5253 10.5143 10.8866 10.3124 11.4189C10.2356 11.6212 10.2343 11.6589 10.2232 13.9995C10.2155 15.64 10.2244 16.4466 10.252 16.607C10.3625 17.2478 10.8192 17.7513 11.4633 17.9424C11.6335 17.993 11.9598 18 14.1268 18C16.7829 18 16.755 18.0018 17.1255 17.813C17.3245 17.7116 17.6641 17.3773 17.7857 17.1631C18.0063 16.7742 18.0023 16.8309 18.0023 14.1391C18.0023 11.83 17.9982 11.6712 17.9346 11.4667C17.7633 10.9165 17.265 10.45 16.7124 10.3226C16.6145 10.3001 15.6299 10.2869 14.0911 10.2875C11.83 10.2885 11.6102 10.2938 11.43 10.352ZM6.27107 11.6229C6.50539 11.7208 6.50082 11.6701 6.50082 14.1609C6.50082 16.6414 6.50814 16.5628 6.26743 16.6634C6.08155 16.741 1.68685 16.7386 1.5363 16.6608C1.31056 16.544 1.32159 16.6735 1.32159 14.1424C1.32159 11.5934 1.30959 11.7263 1.54941 11.622C1.72111 11.5472 6.09205 11.5481 6.27107 11.6229ZM16.485 11.627C16.7221 11.7395 16.7164 11.6777 16.7164 14.14C16.7164 16.5755 16.7186 16.5486 16.5052 16.6589C16.4077 16.7093 16.1368 16.7146 14.0706 16.7059L11.7456 16.6963L11.6414 16.5796L11.5372 16.4629V14.1466C11.5372 11.8608 11.5381 11.829 11.6108 11.7366C11.6514 11.6851 11.7358 11.6281 11.7984 11.61C11.8619 11.5916 12.897 11.5756 14.1392 11.5738C16.0977 11.571 16.3806 11.5774 16.485 11.627Z" fill="#CE2D4F"/>
</svg>
