<svg width="34" height="34" viewBox="0 0 34 34" fill="none" xmlns="http://www.w3.org/2000/svg">
<rect width="34" height="34" rx="17" fill="#D8D8D8"/>
<path d="M22.7277 11.2717C21.2671 9.80288 19.8391 9.77024 18.3376 11.2717L17.4156 12.1856C17.334 12.2672 17.3095 12.3814 17.3421 12.4875C17.9133 14.4867 19.5127 16.0861 21.5119 16.6573C21.5364 16.6654 21.5772 16.6654 21.6016 16.6654C21.6832 16.6654 21.7648 16.6328 21.822 16.5757L22.7277 15.6618C23.4703 14.9192 23.8375 14.2093 23.8375 13.483C23.8375 12.7486 23.4703 12.0224 22.7277 11.2717Z" fill="#161616"/>
<path d="M20.1489 17.3427C19.9286 17.2366 19.7164 17.1306 19.5206 17.0082C19.3574 16.9102 19.1942 16.8042 19.0391 16.6899C18.9086 16.6083 18.7617 16.4859 18.6148 16.3635C18.5985 16.3554 18.5495 16.3146 18.4842 16.2493C18.2313 16.0453 17.962 15.7678 17.709 15.4659C17.6927 15.4496 17.6438 15.4006 17.603 15.3272C17.5214 15.2374 17.399 15.0824 17.2929 14.911C17.2031 14.7968 17.097 14.6336 16.9991 14.4622C16.8767 14.2582 16.7706 14.0542 16.6727 13.8421C16.5666 13.6136 16.485 13.4014 16.4116 13.1974L12.0215 17.5875C11.7359 17.8731 11.4585 18.4117 11.4014 18.8115L11.0505 21.2432C10.977 21.7573 11.1158 22.2387 11.434 22.557C11.7033 22.8262 12.0705 22.965 12.4785 22.965C12.5682 22.965 12.658 22.9568 12.7478 22.9486L15.1713 22.6059C15.5711 22.5488 16.1097 22.2795 16.3953 21.9858L20.7854 17.5957C20.5814 17.5304 20.3774 17.4406 20.1489 17.3427Z" fill="#161616"/>
</svg>
