<svg width="23" height="22" viewBox="0 0 23 22" fill="none" xmlns="http://www.w3.org/2000/svg">
<path fill-rule="evenodd" clip-rule="evenodd" d="M10.7754 0.0236476C10.7107 0.0446407 10.5948 0.0951085 10.5176 0.135876C10.4404 0.176644 8.97149 1.61903 7.2532 3.34117C4.40362 6.19717 4.1242 6.49084 4.07363 6.68273C3.87242 7.4463 4.48989 8.1133 5.24597 7.94897L5.50393 7.89292L7.73042 5.6714C8.955 4.44958 9.97241 3.44988 9.99139 3.44988C10.0104 3.44988 10.0259 6.32908 10.0259 9.84809C10.0259 16.052 10.0286 16.2516 10.1153 16.4202C10.5145 17.1963 11.589 17.1682 11.9212 16.3729C11.9858 16.2183 11.994 15.4812 11.994 9.82429C11.994 6.31835 12.0095 3.44988 12.0285 3.44988C12.0475 3.44988 13.0649 4.44958 14.2894 5.6714L16.5159 7.89292L16.7739 7.94897C17.53 8.1133 18.1474 7.4463 17.9462 6.68273C17.8957 6.49084 17.6162 6.19712 14.7667 3.34107C13.0046 1.57489 11.566 0.170037 11.467 0.118585C11.2632 0.0127293 10.944 -0.0310844 10.7754 0.0236476ZM0.737745 12.0325C0.449746 12.112 0.151156 12.4123 0.064794 12.7095C-0.0430299 13.0804 -0.00751034 17.6945 0.10678 18.1698C0.554992 20.0329 1.84827 21.381 3.62955 21.8418C4.24598 22.0013 4.74021 22.0111 11.338 21.9939C18.4405 21.9754 17.9972 21.9916 18.7946 21.7216C20.0994 21.2796 21.2455 20.1486 21.706 18.8484C21.986 18.0581 21.9859 18.0592 22.0091 15.4459C22.0333 12.7132 22.0294 12.6688 21.7345 12.3337C21.2918 11.8309 20.4998 11.9062 20.1605 12.4833L20.0304 12.7047L20.0053 15.2351C19.981 17.6846 19.9769 17.7742 19.8785 18.0361C19.5243 18.9794 18.9294 19.5609 17.992 19.8801C17.7448 19.9643 17.4595 19.9679 11.0099 19.9679C4.53923 19.9679 4.27588 19.9646 4.02785 19.8794C3.44815 19.6802 2.99746 19.3798 2.63739 18.9524C2.41448 18.6879 2.12788 18.073 2.06368 17.7217C2.03159 17.5461 2.01289 16.5856 2.01289 15.1147V12.7856L1.88196 12.535C1.66571 12.121 1.1838 11.9094 0.737745 12.0325Z" fill="#CE2D4F"/>
</svg>
