<svg width="24" height="25" viewBox="0 0 24 25" fill="none" xmlns="http://www.w3.org/2000/svg">
<path d="M12 12.5C14.7614 12.5 17 10.2614 17 7.5C17 4.73858 14.7614 2.5 12 2.5C9.23858 2.5 7 4.73858 7 7.5C7 10.2614 9.23858 12.5 12 12.5Z" fill="#CE2D4F"/>
<path d="M12 12.5C14.7614 12.5 17 10.2614 17 7.5C17 4.73858 14.7614 2.5 12 2.5C9.23858 2.5 7 4.73858 7 7.5C7 10.2614 9.23858 12.5 12 12.5Z" fill="url(#paint0_linear_457_4529)"/>
<g opacity="0.4">
<path d="M12.0002 15C6.99018 15 2.91016 18.36 2.91016 22.5C2.91016 22.78 3.13016 23 3.41016 23H20.5902C20.8702 23 21.0902 22.78 21.0902 22.5C21.0902 18.36 17.0102 15 12.0002 15Z" fill="#CE2D4F"/>
<path d="M12.0002 15C6.99018 15 2.91016 18.36 2.91016 22.5C2.91016 22.78 3.13016 23 3.41016 23H20.5902C20.8702 23 21.0902 22.78 21.0902 22.5C21.0902 18.36 17.0102 15 12.0002 15Z" fill="url(#paint1_linear_457_4529)"/>
</g>
<path d="M21.4291 15.24C20.5291 14.34 19.8191 14.63 19.2091 15.24L15.669 18.7801C15.529 18.9201 15.3991 19.18 15.3691 19.37L15.1791 20.72C15.1091 21.21 15.4491 21.55 15.9391 21.48L17.289 21.29C17.479 21.26 17.7491 21.13 17.8791 20.99L21.419 17.45C22.039 16.85 22.3291 16.14 21.4291 15.24Z" fill="#CE2D4F"/>
<path d="M21.4291 15.24C20.5291 14.34 19.8191 14.63 19.2091 15.24L15.669 18.7801C15.529 18.9201 15.3991 19.18 15.3691 19.37L15.1791 20.72C15.1091 21.21 15.4491 21.55 15.9391 21.48L17.289 21.29C17.479 21.26 17.7491 21.13 17.8791 20.99L21.419 17.45C22.039 16.85 22.3291 16.14 21.4291 15.24Z" fill="url(#paint2_linear_457_4529)"/>
<defs>
<linearGradient id="paint0_linear_457_4529" x1="6.84513" y1="-1.73913" x2="17.9542" y2="-0.884812" gradientUnits="userSpaceOnUse">
<stop stop-color="#2E87B0"/>
<stop offset="1" stop-color="#00537A"/>
</linearGradient>
<linearGradient id="paint1_linear_457_4529" x1="2.62861" y1="11.6087" x2="22.3422" y2="15.0539" gradientUnits="userSpaceOnUse">
<stop stop-color="#2E87B0"/>
<stop offset="1" stop-color="#00537A"/>
</linearGradient>
<linearGradient id="paint2_linear_457_4529" x1="15.0642" y1="11.7773" x2="22.651" y2="12.3616" gradientUnits="userSpaceOnUse">
<stop stop-color="#2E87B0"/>
<stop offset="1" stop-color="#00537A"/>
</linearGradient>
</defs>
</svg>
