<svg width="17" height="18" viewBox="0 0 17 18" fill="none" xmlns="http://www.w3.org/2000/svg">
<path fill-rule="evenodd" clip-rule="evenodd" d="M1.19288 0.0488419C0.632333 0.170642 0.169379 0.639082 0.049238 1.20609C0.00762225 1.40252 0.000342009 2.44339 3.3942e-06 8.24278C-0.000233636 12.5038 0.0119565 15.1249 0.032612 15.2521C0.12414 15.8154 0.52743 16.2745 1.11262 16.4816C1.2544 16.5318 1.77997 16.538 6.73766 16.5476C10.0827 16.5542 12.3343 16.5456 12.5358 16.5256C13.0278 16.4769 13.2401 16.3435 13.4352 15.9603L13.5057 15.822L13.223 15.5407C13.014 15.3328 12.925 15.2654 12.8818 15.282C12.8496 15.2943 10.2625 15.3039 7.13276 15.3033C0.821517 15.3021 1.32348 15.3216 1.25196 15.0745C1.22589 14.9844 1.2181 12.9784 1.22518 8.1843L1.23517 1.42121L1.32907 1.32735L1.42293 1.23345L6.84849 1.22343C10.6654 1.21635 12.3115 1.22424 12.4005 1.25001C12.47 1.27016 12.5462 1.32038 12.5698 1.36162C12.6033 1.42027 12.6163 2.19644 12.6296 4.91887L12.6465 8.40112L12.9686 8.509C13.1458 8.56833 13.4106 8.68887 13.557 8.77691C13.7035 8.86492 13.829 8.93694 13.8359 8.93694C13.8429 8.93694 13.8486 7.21644 13.8486 5.11361C13.8486 0.819598 13.8646 1.10072 13.5961 0.696206C13.3674 0.351564 13.0026 0.10854 12.5994 0.0320805C12.4798 0.0093933 10.5259 -0.00157782 6.91083 0.000182973C2.40745 0.00241783 1.36594 0.0112557 1.19288 0.0488419ZM2.34335 4.44183L2.3526 5.0598H6.21281H10.073L10.0823 4.44183L10.0915 3.82386H6.21281H2.33414L2.34335 4.44183ZM2.33567 7.97189V8.59833H6.21281H10.09V7.97189V7.34545H6.21281H2.33567V7.97189ZM11.1828 9.17607C10.0677 9.28853 9.12503 10.1105 8.83592 11.2226C8.74504 11.5722 8.73806 12.1328 8.82011 12.4924C8.99693 13.2672 9.57461 14.002 10.2688 14.3351C10.6986 14.5414 10.9961 14.6074 11.4783 14.6034C11.9413 14.5995 12.2623 14.5338 12.6348 14.3666L12.8378 14.2755L14.3677 15.8051L15.8975 17.3346L16.4137 16.8183L16.93 16.3021L15.4015 14.7734L13.8731 13.2446L13.9765 12.9955C14.2749 12.2766 14.289 11.5558 14.018 10.879C13.5631 9.74291 12.4128 9.05204 11.1828 9.17607ZM11.9616 10.3416C12.2054 10.415 12.3741 10.515 12.5876 10.7126C13.2535 11.3291 13.274 12.3587 12.6337 13.0265C12.1576 13.5231 11.3067 13.6313 10.6545 13.2783C10.4647 13.1756 10.1538 12.8534 10.052 12.6537C9.86701 12.2911 9.81781 11.7693 9.93524 11.4158C10.1388 10.803 10.6683 10.3541 11.2751 10.2799C11.4481 10.2588 11.7878 10.2893 11.9616 10.3416Z" fill="#CE2D4F"/>
</svg>
